<?xml version="1.0" encoding="UTF-8" standalone="no"?>
<!-- Created with Inkscape (http://www.inkscape.org/) -->

<svg
   width="48mm"
   height="48mm"
   viewBox="0 0 48 48"
   version="1.1"
   id="svg833"
   inkscape:version="1.1.2 (0a00cf5339, 2022-02-04)"
   sodipodi:docname="clock_blue.svg"
   xmlns:inkscape="http://www.inkscape.org/namespaces/inkscape"
   xmlns:sodipodi="http://sodipodi.sourceforge.net/DTD/sodipodi-0.dtd"
   xmlns="http://www.w3.org/2000/svg"
   xmlns:svg="http://www.w3.org/2000/svg">
  <sodipodi:namedview
     id="namedview835"
     pagecolor="#ffffff"
     bordercolor="#111111"
     borderopacity="1"
     inkscape:pageshadow="0"
     inkscape:pageopacity="0"
     inkscape:pagecheckerboard="1"
     inkscape:document-units="mm"
     showgrid="false"
     inkscape:zoom="2.7438272"
     inkscape:cx="95.669291"
     inkscape:cy="102.59393"
     inkscape:window-width="1920"
     inkscape:window-height="948"
     inkscape:window-x="0"
     inkscape:window-y="1107"
     inkscape:window-maximized="1"
     inkscape:current-layer="layer1" />
  <defs
     id="defs830" />
  <g
     inkscape:label="Layer 1"
     inkscape:groupmode="layer"
     id="layer1">
    <path
       style="fill:#929ab9;fill-opacity:1;stroke-width:0.046178"
       d="m 22.713057,46.525394 c -2.250817,-0.195365 -3.28354,-0.359693 -4.735454,-0.75351 -5.320702,-1.443188 -9.9341991,-4.747279 -12.9600671,-9.281732 -2.165612,-3.245304 -3.35038,-6.541398 -3.738225,-10.399955 -0.09927,-0.987559 -0.112634,-3.323803 -0.02412,-4.215377 0.222321,-2.239425 0.677129,-4.144547 1.471709,-6.16476 2.040535,-5.188047 5.875752,-9.4002493 10.8890981,-11.95945 3.003585,-1.5332628 6.709796,-2.4468894 9.930108,-2.4478938 0.932857,-2.91e-4 1.436152,0.1709235 1.920518,0.653336 1.189732,1.1849314 0.621646,3.2564893 -1.004014,3.6611956 -0.14952,0.037223 -0.677066,0.090017 -1.172325,0.1173203 -0.931058,0.051329 -1.54319,0.1067592 -2.101098,0.1902609 -3.911308,0.5854038 -7.319426,2.2990988 -10.220545,5.13917 -3.3779021,3.30682 -5.2064321,7.601643 -5.3498231,12.565585 -0.123115,4.261993 1.243392,8.186428 4.086103,11.734769 2.2233051,2.775182 5.0488751,4.733043 8.4134291,5.829734 1.126054,0.367042 2.474271,0.659794 3.786595,0.822222 0.953066,0.117963 3.265185,0.117731 4.179107,-4.15e-4 4.798537,-0.620343 8.98049,-2.924217 11.962141,-6.590046 0.655482,-0.805891 0.890251,-1.027972 1.30162,-1.231282 0.307163,-0.151809 0.381996,-0.169061 0.81729,-0.18842 0.605216,-0.02692 0.991236,0.07706 1.398097,0.37657 0.935885,0.688959 1.199553,1.827561 0.65825,2.842525 -0.338832,0.635323 -1.906173,2.411439 -3.010897,3.411961 -3.415325,3.093171 -7.510474,5.0304 -11.972052,5.66343 -1.261815,0.179033 -3.67274,0.298775 -4.525442,0.224762 z M 43.019877,31.386725 C 42.282795,31.226606 41.613635,30.6101 41.387181,29.8825 c -0.131641,-0.422964 -0.111423,-0.794188 0.09559,-1.755075 0.385949,-1.791481 0.484,-2.663831 0.482197,-4.29004 -0.0015,-1.313142 -0.06324,-2.021439 -0.277931,-3.186281 C 41.130245,17.630147 39.845365,14.839375 37.920134,12.46935 37.409387,11.840603 36.325153,10.725463 35.687294,10.172862 34.423992,9.0784218 32.905017,8.0947906 31.46896,7.4412308 30.303116,6.9106467 30.194582,6.8517509 29.913717,6.597289 29.297245,6.038769 29.047004,5.130697 29.292657,4.3435949 c 0.238398,-0.7638573 0.929109,-1.3767956 1.713779,-1.5208108 0.641755,-0.1177852 1.19628,0.050128 2.835514,0.8586084 3.263701,1.6096774 5.919682,3.8118731 8.086789,6.7051275 3.668373,4.897562 5.198341,11.161082 4.193612,17.168192 -0.120994,0.723407 -0.340583,1.760485 -0.463926,2.19104 -0.254722,0.889159 -0.85536,1.451457 -1.753719,1.641773 -0.3833,0.0812 -0.507863,0.08109 -0.884829,-7.98e-4 z M 23.21648,28.571287 c -0.798467,-0.173715 -1.38325,-0.769228 -1.622915,-1.652692 -0.07137,-0.26308 -0.07811,-0.823629 -0.07956,-6.613826 l -0.0016,-6.326384 0.103407,-0.328789 c 0.262615,-0.835003 0.91652,-1.389362 1.829895,-1.551322 1.016767,-0.180294 2.139925,0.593004 2.436404,1.677472 0.04098,0.149905 0.0602,1.533534 0.07383,5.316851 l 0.01843,5.114211 3.264195,3.7e-4 c 1.975249,2.31e-4 3.382719,0.01883 3.564352,0.04716 0.69096,0.107746 1.348239,0.611609 1.667665,1.278414 0.349763,0.730136 0.179576,1.762597 -0.396081,2.402866 -0.252412,0.280742 -0.738151,0.545624 -1.167348,0.636575 -0.442858,0.09385 -9.258982,0.09305 -9.690702,-8.82e-4 z"
       id="path975" />
  </g>
</svg>
