<?xml version="1.0" encoding="UTF-8" standalone="no"?>
<!-- Created with Inkscape (http://www.inkscape.org/) -->

<svg
   width="50mm"
   height="45mm"
   viewBox="0 0 50 45"
   version="1.1"
   id="svg5"
   inkscape:version="1.1.2 (0a00cf5339, 2022-02-04)"
   sodipodi:docname="exit_red.svg"
   xmlns:inkscape="http://www.inkscape.org/namespaces/inkscape"
   xmlns:sodipodi="http://sodipodi.sourceforge.net/DTD/sodipodi-0.dtd"
   xmlns="http://www.w3.org/2000/svg"
   xmlns:svg="http://www.w3.org/2000/svg">
  <sodipodi:namedview
     id="namedview7"
     pagecolor="#ffffff"
     bordercolor="#111111"
     borderopacity="1"
     inkscape:pageshadow="0"
     inkscape:pageopacity="0"
     inkscape:pagecheckerboard="1"
     inkscape:document-units="mm"
     showgrid="false"
     inkscape:zoom="1.9401788"
     inkscape:cx="192.50803"
     inkscape:cy="180.91116"
     inkscape:window-width="1920"
     inkscape:window-height="975"
     inkscape:window-x="0"
     inkscape:window-y="0"
     inkscape:window-maximized="1"
     inkscape:current-layer="layer1" />
  <defs
     id="defs2" />
  <g
     inkscape:label="Layer 1"
     inkscape:groupmode="layer"
     id="layer1">
    <path
       style="fill:#cd2b2b;fill-opacity:1;stroke-width:0.0493591"
       d="m 20.9564,44.191217 c -0.650666,-0.174974 -1.267314,-0.693559 -1.557503,-1.30982 -0.233739,-0.49638 -0.291651,-0.890746 -0.196932,-1.34103 0.119849,-0.569745 0.654493,-2.521647 1.64555,-6.007645 0.706519,-2.485148 0.919362,-3.296486 0.876303,-3.340403 -0.03129,-0.0319 -1.567268,-0.895233 -3.413308,-1.918514 -3.733323,-2.069421 -5.149677,-2.875515 -5.673348,-3.228883 -0.708288,-0.477948 -1.109324,-1.04899 -1.316935,-1.875206 -0.08981,-0.357431 -0.101231,-0.512769 -0.07981,-1.085908 0.04019,-1.075258 0.134284,-1.357591 1.094803,-3.284856 0.446492,-0.895873 1.181463,-2.328527 1.633272,-3.183678 1.634718,-3.094079 2.1631,-4.157108 2.087369,-4.199489 -0.07079,-0.03961 -2.827143,-0.60075 -3.264466,-0.664573 l -0.237667,-0.03469 -0.478045,0.463274 C 8.9703868,16.189149 7.883989,17.215908 7.685438,17.329039 7.1769388,17.618776 6.2950903,17.705829 5.71079,17.523975 4.2813493,17.079083 3.6240037,15.30457 4.4189804,14.036724 4.68229,13.616791 8.7902334,9.5666109 10.190895,8.3459693 c 0.718451,-0.6261121 1.083765,-0.703018 2.384886,-0.5020615 0.851432,0.1315024 2.62414,0.4513506 5.209553,0.9399536 l 2.090867,0.3951427 1.463007,0.7560688 c 0.804652,0.4158401 1.973872,1.0144821 2.598269,1.3303191 l 1.135266,0.574248 2.188555,1.826593 2.188556,1.826591 h 2.290805 2.290806 V 8.3279098 1.1629969 l 7.457574,0.02857 c 4.101667,0.015714 7.464267,0.035888 7.47244,0.044827 0.0082,0.00894 0.0312,9.5950531 0.05117,21.3024751 l 0.03631,21.286225 h -7.508753 -7.508742 v -9.495615 -9.495617 l 2.40627,0.02494 c 1.323447,0.01371 2.410258,0.02794 2.415135,0.0316 0.0048,0.0036 0.03508,0.872626 0.06709,1.931032 0.03201,1.058405 0.06415,1.930874 0.07139,1.938821 0.0072,0.008 0.08942,0.02682 0.182607,0.04195 0.151527,0.02459 0.210889,-0.0053 0.561411,-0.281895 0.215584,-0.170164 1.658036,-1.571071 3.205454,-3.113127 l 2.81348,-2.803739 -2.171807,-2.177522 C 41.29575,18.133155 39.94476,16.827564 39.602371,16.579538 39.451216,16.470041 39.341835,16.430639 39.189024,16.430639 h -0.207803 l -0.03215,1.122925 c -0.01769,0.617609 -0.04609,1.49497 -0.06311,1.949696 l -0.03095,0.826767 -4.793357,-0.0011 c -4.90124,-0.0011 -6.044119,-0.03116 -6.370911,-0.167696 -0.213259,-0.0891 -0.614411,-0.395302 -2.173756,-1.659225 -1.08634,-0.880528 -1.863322,-1.478748 -2.051293,-1.579347 -0.07464,-0.03995 -0.120341,0.01 -0.306749,0.335156 -0.819168,1.428959 -4.034199,7.700086 -4.033865,7.868317 1.47e-4,0.07484 0.219663,0.200615 3.793273,2.173582 2.959087,1.633694 4.11878,2.284181 4.313871,2.419707 0.09615,0.06679 0.135738,0.136807 0.135738,0.240074 0,0.314696 -0.715122,2.922462 -2.326928,8.485385 -1.34981,4.65868 -1.340148,4.63099 -1.773903,5.083386 -0.610537,0.636783 -1.480154,0.886259 -2.310722,0.662905 z M 2.1320035,36.552373 C 1.4350468,36.256364 0.91735371,35.636559 0.74054188,34.886457 0.49066556,33.826385 0.98101267,32.697352 1.8738438,32.277007 2.427973,32.016126 3.0314264,31.912523 5.9208155,31.582209 8.0383729,31.340132 8.0897828,31.331349 8.2455451,31.185017 8.3888367,31.050403 8.805184,30.236818 9.4713795,28.789619 l 0.479716,-1.042099 0.5271145,0.52435 c 0.607916,0.604726 1.041379,0.911322 2.378091,1.682059 0.52938,0.305235 0.982415,0.573554 1.006746,0.596262 0.04925,0.04597 0.01895,0.121481 -0.622782,1.552056 -0.773013,1.72324 -1.678154,3.67815 -1.712985,3.699675 -0.146842,0.09075 -7.1906494,0.797541 -8.4194522,0.84482 -0.6544159,0.02517 -0.7061218,0.02017 -0.9758243,-0.09437 z M 23.962156,8.4431018 C 23.56104,8.3111706 22.89716,7.9519281 22.557564,7.6830424 21.926251,7.1831775 21.421366,6.3969035 21.217598,5.5962704 c -0.123487,-0.4852003 -0.124328,-1.59655 -0.0015,-2.0730932 0.317811,-1.233732 1.173006,-2.2207669 2.356658,-2.71996771 1.021344,-0.43074846 2.376938,-0.3477143 3.456051,0.21169391 0.821723,0.4259774 1.574901,1.2950859 1.917044,2.2121173 0.137797,0.3693328 0.193875,1.4969562 0.106777,2.1471326 -0.16014,1.195471 -1.228858,2.4251532 -2.597756,2.9890179 -0.333678,0.1374446 -0.377649,0.1427818 -1.283344,0.1557721 -0.796616,0.011432 -0.978705,5.5e-6 -1.209304,-0.075841 z"
       id="path854" />
  </g>
</svg>
