<?xml version="1.0" encoding="UTF-8" standalone="no"?>
<!-- Created with Inkscape (http://www.inkscape.org/) -->

<svg
   width="48mm"
   height="48mm"
   viewBox="0 0 48 48"
   version="1.1"
   id="svg833"
   xmlns="http://www.w3.org/2000/svg"
   xmlns:svg="http://www.w3.org/2000/svg">
  <defs
     id="defs830" />
  <g
     id="layer1">
    <path
       style="fill:#929ab9;fill-opacity:1;stroke-width:0.0288039"
       d="M 11.62194,46.405021 C 8.5675021,46.226572 5.7979369,44.756374 3.9837998,42.350378 2.8429982,40.837388 2.1634415,39.084814 1.9556771,37.119847 c -0.059195,-0.559868 -0.043002,-1.901277 0.029279,-2.424329 0.2531994,-1.832416 0.8686888,-3.447861 1.9040612,-4.997493 0.633371,-0.947961 0.5300407,-0.83892 5.7280208,-6.044538 2.6473129,-2.651207 4.9623569,-4.949794 5.1445429,-5.107975 1.850979,-1.607101 4.071039,-2.572902 6.552906,-2.850733 0.416613,-0.04664 1.668344,-0.04607 2.088291,8.98e-4 2.169355,0.242874 4.018611,1.020679 5.625971,2.366309 0.815951,0.683086 1.146436,1.127296 1.364801,1.834452 0.07287,0.235983 0.07808,0.28792 0.07743,0.771488 -8.11e-4,0.482334 -0.0062,0.536541 -0.07986,0.777708 -0.160101,0.524302 -0.409051,0.92681 -0.802778,1.297964 -0.531665,0.50118 -1.19259,0.760767 -1.936966,0.760767 -0.802692,0 -1.409965,-0.260487 -2.117094,-0.908117 -0.500541,-0.458423 -1.009004,-0.766158 -1.613644,-0.97662 -1.721672,-0.599273 -3.714531,-0.19582 -5.284913,1.069926 -0.322236,0.259727 -9.3607295,9.345344 -9.6799368,9.730401 -0.527437,0.636252 -0.9566909,1.443415 -1.1794907,2.217908 -0.2030744,0.705924 -0.2533376,1.561145 -0.1319237,2.244716 0.2147428,1.209038 0.8602582,2.237978 1.8748883,2.988548 0.7863669,0.581714 1.6798559,0.865665 2.7219759,0.865052 1.266403,-8.11e-4 2.460353,-0.445073 3.6005,-1.339942 0.149755,-0.11754 1.384454,-1.326126 2.923605,-2.861774 l 2.664373,-2.658309 0.144018,0.114865 c 0.599492,0.47814 1.804699,0.914631 3.133653,1.134922 0.649363,0.107637 1.037427,0.140388 1.662209,0.140295 0.951134,0 1.640388,-0.140863 2.11335,-0.431469 0.126526,-0.07774 -7.821476,7.898094 -8.407021,8.436462 -1.909716,1.755842 -4.218384,2.822003 -6.682526,3.086033 -0.522202,0.05595 -1.28071,0.07639 -1.771446,0.04772 z m 14.07075,-14.08771 c -2.122051,-0.11603 -4.163193,-0.879619 -5.804892,-2.17159 -0.413386,-0.325324 -0.918161,-0.796481 -1.112261,-1.038177 -0.462093,-0.575419 -0.6929,-1.352362 -0.614202,-2.067548 0.11362,-1.032571 0.704998,-1.867666 1.629344,-2.300826 0.363311,-0.170254 0.627041,-0.231043 1.073373,-0.247413 0.448918,-0.01647 0.716242,0.01911 1.069214,0.142348 0.448349,0.156518 0.692767,0.315447 1.210274,0.786952 1.49533,1.362411 3.71073,1.603028 5.696646,0.618713 0.42905,-0.212657 0.832514,-0.47045 1.177603,-0.752432 0.120721,-0.09865 1.432497,-1.398708 2.915061,-2.889026 1.482563,-1.490322 3.53382,-3.552191 4.558346,-4.581934 1.024526,-1.029743 1.937488,-1.956511 2.028808,-2.059486 0.619364,-0.698421 1.114968,-1.587826 1.348234,-2.419535 0.150643,-0.537102 0.176113,-0.744188 0.17535,-1.425797 -8.11e-4,-0.69795 -0.03915,-0.961654 -0.21785,-1.497809 -0.507831,-1.523484 -1.825792,-2.7180039 -3.381131,-3.0644431 -1.512176,-0.3368258 -3.147533,0.082797 -4.56532,1.1714265 -0.14638,0.1123986 -1.333583,1.2745179 -2.952408,2.8900396 l -2.707576,2.702048 -0.201627,-0.15817 c -0.495627,-0.388799 -1.54462,-0.791383 -2.652531,-1.017991 -0.767297,-0.156941 -1.304674,-0.213827 -2.042522,-0.216219 -0.93714,-0.0031 -1.479373,0.08954 -1.983755,0.338698 l -0.255519,0.126223 4.331281,-4.3266397 c 2.562275,-2.5595277 4.458667,-4.4313635 4.643174,-4.5830485 1.815413,-1.492485 3.855163,-2.3711537 6.154606,-2.6512408 0.513466,-0.062545 1.781576,-0.070655 2.261114,-0.014451 2.508621,0.2939739 4.55328,1.2608369 6.251578,2.9562033 1.750776,1.7477472 2.770669,3.9834871 2.982884,6.5388677 0.04099,0.493518 0.01704,1.65106 -0.04365,2.110618 -0.300497,2.275237 -1.193288,4.307635 -2.678958,6.09852 -0.292874,0.353034 -1.049038,1.11542 -5.100458,5.142393 -4.151243,4.12619 -4.947104,4.905807 -5.303954,5.195688 -1.755063,1.425677 -3.682824,2.279251 -5.830876,2.5818 -0.361487,0.05091 -1.347433,0.119682 -1.567733,0.109345 -0.04753,-0.0021 -0.267879,-0.01396 -0.489669,-0.02609 z"
       id="path836" />
  </g>
</svg>
