<?xml version="1.0" encoding="UTF-8" standalone="no"?>
<!-- Created with Inkscape (http://www.inkscape.org/) -->

<svg
   width="210mm"
   height="165mm"
   viewBox="0 0 210 165"
   version="1.1"
   id="svg8077"
   sodipodi:docname="reflections_blackwhite.svg"
   inkscape:version="1.1.2 (0a00cf5339, 2022-02-04)"
   xmlns:inkscape="http://www.inkscape.org/namespaces/inkscape"
   xmlns:sodipodi="http://sodipodi.sourceforge.net/DTD/sodipodi-0.dtd"
   xmlns="http://www.w3.org/2000/svg"
   xmlns:svg="http://www.w3.org/2000/svg">
  <sodipodi:namedview
     id="namedview7"
     pagecolor="#ffffff"
     bordercolor="#111111"
     borderopacity="1"
     inkscape:pageshadow="0"
     inkscape:pageopacity="0"
     inkscape:pagecheckerboard="1"
     inkscape:document-units="mm"
     showgrid="false"
     inkscape:zoom="0.87308046"
     inkscape:cx="400.30675"
     inkscape:cy="364.80029"
     inkscape:window-width="1920"
     inkscape:window-height="948"
     inkscape:window-x="0"
     inkscape:window-y="1107"
     inkscape:window-maximized="1"
     inkscape:current-layer="svg8077" />
  <defs
     id="defs8074" />
  <g
     id="layer1">
    <path
       style="fill:#ffc64c;fill-opacity:1;stroke-width:0.311257"
       d="m 14.462209,65.073088 c 4.471114,2.007608 -3.730844,1.76158 0,0 z m 27.11633,48.749772 c 1.85952,-12.4074 14.749062,-0.25311 21.857675,-0.34189 7.725637,-4.29202 -8.085029,-6.04478 -11.539708,-7.7422 4.733976,0.5674 14.614043,-0.9761 5.572624,-4.8556 -7.183023,-5.06939 6.49046,0.9885 7.79518,3.23729 4.211452,2.74429 12.709674,13.487 15.984418,8.17221 C 81.750064,103.6402 74.616512,98.640871 72.938322,91.468291 71.61567,89.104783 67.711007,84.992583 69.532803,89.321559 61.068132,82.271832 51.274188,76.44491 40.22455,74.64085 34.032329,72.54845 25.956067,74.493544 20.872012,72.567828 c 6.987211,-3.253108 14.404752,0.0026 21.508533,0.111887 -7.760541,-4.06522 -17.120063,-4.062507 -24.44644,-9.004011 -4.071933,-5.862928 7.990414,2.150124 10.786576,-0.06459 4.379198,1.518355 12.568441,6.380843 15.699723,2.456937 -3.393799,-7.125532 -13.747031,-11.29821 -13.982545,-20.023462 5.143551,7.184264 14.185104,11.959132 16.547805,20.790755 4.827519,4.39482 11.207604,14.388449 18.323955,9.921861 1.964284,0.305427 -6.174575,3.48428 1.233743,2.835865 4.293302,0.573309 6.485698,14.76252 11.038399,8.778582 0.599339,-2.746331 -4.430267,-15.585153 0.135815,-7.312157 0.971811,-4.196445 3.125,-7.049025 2.658074,-0.705328 -1.838382,10.235067 -0.261851,20.376704 3.531797,29.939724 1.581863,9.65691 9.55286,16.72405 10.515747,26.41582 -0.180311,2.99523 2.902552,6.4104 5.054348,2.63547 -0.759702,3.9575 0.928218,15.03496 -1.742427,13.83663 -1.910821,-10.24047 -9.206143,-18.01146 -18.858498,-21.47258 -8.373431,-4.37802 -18.084402,-8.43454 -27.583327,-5.4797 -10.384096,0.45574 13.056866,-3.77535 0.633972,-6.40529 -8.324815,1.07546 -7.480691,-7.29211 -2.535041,-9.4679 -3.64241,-2.22236 -6.701735,-1.05104 -3.69433,1.52724 -1.484624,0.73226 -4.176242,-1.10678 -4.119352,1.93928 z M 18.235469,63.124238 c 11.145843,4.459575 22.983882,7.39631 33.33746,13.61989 2.969453,1.528802 14.701774,8.655789 6.554923,2.624636 C 48.141646,72.411443 36.860762,67.716562 25.11753,64.68268 24.077137,64.8162 12.6961,58.728547 18.235469,63.124238 Z m 14.21661,-11.98217 c 2.605234,4.281327 5.244839,4.348014 1.070136,-0.426972 -0.454006,-1.100604 -1.332029,-0.151629 -1.070136,0.426972 z m -7.8324,21.81668 c 4.616087,-0.284668 7.714422,-1.25266 1.180004,-0.625257 0.137855,-0.314592 -5.023636,0.753758 -1.180004,0.625257 z m 7.40294,-0.32289 c -0.166588,-1.889288 -3.629173,0.641793 0,0 z m 1.23151,0.13446 c 2.873943,0.05818 -1.690542,-0.962564 0,0 z m 12.73594,42.766302 c 5.692727,6.12154 2.349577,-7.00773 0,0 z m 3.04535,-5.89143 c 1.812263,0.0246 -1.918304,-1.36385 0,0 z m -3.41607,8.38152 c 1.844298,-0.55555 -1.098017,-1.27083 0,0 z m 2.52475,-0.12765 c 10.236142,1.18974 18.740552,8.07147 28.52506,10.48806 -0.514171,-8.83444 -14.341419,-14.59854 -22.921833,-14.87235 -3.970867,0.28415 -4.40518,4.20911 -5.603227,4.38429 z m 23.55169,4.51972 c 5.78336,2.79799 -2.658918,2.1565 -0.706129,-0.19519 l 0.472856,0.13071 z m 4.07068,3.58161 c 0.981122,0.4833 -1.46339,0.34859 0,0 z m -7.65383,-43.129162 c 6.144168,7.108516 -4.380766,-8.159288 -0.871109,-1.100217 0.29037,0.366739 0.580739,0.733478 0.871109,1.100217 z m -10.77388,23.886202 c -0.137459,-0.79438 -2.460749,1.5e-4 0,0 z m 9.10357,-23.387842 c 4.210337,2.707196 -1.37515,-2.753773 0,0 z m -0.04,1.44775 c 3.703622,1.564152 1.322703,-2.256009 0,0 z m -10.60319,28.255902 c 6.947755,3.28073 -1.416175,-2.84558 0,0 z m 5.24214,-10.78272 c 0.422885,-0.61729 -1.906935,0.0226 0,0 z m 2.4964,2.59081 c 4.072417,9.04982 2.796655,-4.10554 -0.847208,-0.67808 z m -5.99424,16.70989 c 3.934989,1.19209 -4.261861,-2.60354 0,0 z m 2.33648,2.81773 c 1.192174,-1.00709 -2.338669,-0.46579 0,0 z m 19.21421,-44.920402 c 0.457652,8.373242 -5.91634,16.953109 1.01154,24.380572 4.598902,7.23237 -2.847082,15.2283 6.029255,19.05725 7.477316,4.44447 3.807499,15.61925 9.039414,19.59608 -0.603971,-8.77563 -4.081698,-17.05252 -9.926749,-23.70919 -1.156476,-11.17344 -8.259544,-21.517518 -5.832844,-33.097105 0.817541,-1.181687 0.17176,-11.643338 -0.320616,-6.227607 z m -14.21249,35.800242 c 0.504462,-1.14939 -1.961158,0.20259 0,0 z m 5.68304,-0.78134 c 6.135336,6.51079 11.522873,19.7397 20.892892,19.58795 -0.189557,-8.91594 -9.924069,-13.18773 -15.705752,-18.65245 -2.412998,-1.89735 -11.802963,-8.61648 -5.18714,-0.9355 z m -2.26295,-0.41752 c 2.941184,5.50239 2.608496,0.52731 -0.182019,-1.37785 z m 4.34668,-1.98019 c 1.909847,-0.0356 -1.358908,-1.30463 0,0 z m 2.776,2.1605 c 3.664211,2.45742 -2.175529,-3.06751 0,0 z m 3.76489,2.32851 c 1.265224,-2.43015 -3.25632,-0.48302 0,0 z m -0.86999,13.45866 c 1.018043,-1.00656 -1.991748,0.33573 0,0 z m 1.32644,-0.41951 c 0.278037,4.713 16.503434,9.92846 6.474915,4.40846 -1.410964,-0.4996 -5.681692,-8.25732 -6.474915,-4.40846 z m 17.29169,16.58018 c -0.07198,9.17986 3.432611,-0.36581 0.770563,-2.75657 -0.814297,0.66015 -1.046168,1.79407 -0.770563,2.75657 z m -83.0268,-75.521392 c 0.878515,1.131655 -1.434475,0.223554 0,0 z m -2.221,5.22922 c 4.042167,0.207172 1.509703,2.950763 0,0 z m 2.30453,-3.74564 c 0.873593,1.07743 -1.264084,-0.06692 0,0 z m 6.44924,20.78777 c 3.904973,-2.842247 20.129588,-1.148697 13.711102,-8.393389 -2.589501,-0.92021 -16.17007,-6.245358 -7.328643,-4.861745 8.913435,2.743291 20.120403,5.802824 25.399829,13.471822 -8.204739,1.068809 -19.111454,-1.253382 -28.321878,1.430666 -1.337091,0.297282 -6.730356,1.04048 -3.46041,-1.647354 z m 0.56809,1.3045 c 9.98969,-1.076708 20.109007,-2.615948 30.14231,-1.12952 -7.32961,-4.769647 -16.982014,-2.234334 -25.023918,-0.891631 -1.758318,0.415212 -3.798071,0.638467 -5.118392,2.021151 z m 9.45618,-11.79457 c 2.765576,1.979266 14.755449,6.634997 6.485749,1.467163 -2.408379,-1.290013 -14.749091,-5.133918 -6.485749,-1.467163 z m -8.63284,-24.39563 c 5.145746,2.308299 -1.738308,2.227713 6e-5,-1.8e-4 z m -3.5404,10.92063 0.749868,1.063046 z m 2.00643,-3.40631 c 1.357797,1.305569 -1.909759,0.03431 0,0 z m 14.59358,-35.373192 c 1.546426,1.004935 -1.408877,0.464663 0,0 z m -1.44838,5.285137 c 0.879436,1.131356 -1.434598,0.223886 0,0 z m -9.1123,24.775495 c 1.836925,1.038752 -0.989485,1.346595 0,0 z m 17.09466,-37.466022 c 2.132549,5.46853 -4.234293,-2.830608 0,0 z m 1.19848,5.81973 c 11.274614,4.935943 14.810722,17.854506 23.414147,25.766357 2.979107,5.942729 13.672625,8.682208 10.43719,-1.0434 -0.02155,-9.213479 -8.02189,-14.992327 -10.029988,-23.406778 -0.70182,-3.667155 -4.575046,-17.759965 0.986737,-8.081552 2.961002,4.445711 3.982906,18.910762 10.93689,14.991393 2.859691,-6.802109 1.008653,-14.174262 1.927431,-21.238136 -0.319082,4.014025 3.165485,10.239527 3.573859,2.821451 0.0036,-8.5234597 5.586675,-3.743495 2.150487,1.835321 -3.698987,12.659317 -5.979663,25.962214 -3.743181,39.118974 -0.07066,10.444096 4.914632,19.420048 9.38422,28.430117 0.910931,6.041534 9.003929,11.524788 8.408789,1.829559 2.415,-15.274671 -2.402395,-30.434436 -5.314088,-45.287777 C 91.652894,37.158042 92.885001,29.351604 90.892399,21.953142 89.716541,18.279193 84.986122,4.8707701 90.29463,14.923871 c 5.87443,9.793118 3.123293,21.888218 7.975314,32.031115 2.583906,12.099685 12.735816,0.358563 11.243016,-6.996949 -0.39244,-7.065073 -2.58658,-18.862652 -1.41342,-23.195681 4.68052,9.900967 3.37833,-11.3132981 6.27522,-3.872361 2.23971,-3.9097564 2.70671,-4.3891038 1.46342,-0.759402 4.67029,-0.371366 -3.90987,5.505872 -2.50431,9.760117 -5.07578,6.12347 4.06308,18.214649 8.01485,7.596198 4.0649,-2.967777 4.25879,-13.928258 9.03652,-12.687133 -5.7147,0.921863 -2.88315,10.970622 1.04665,3.814105 3.41703,-4.051412 1.15687,-8.196782 4.50592,-10.228026 1.28079,-9.2624451 -7.59266,-2.3537916 -7.0667,2.946208 3.24472,0.723051 1.94268,-7.9940012 3.91797,-2.651556 -1.37019,9.796636 -7.12294,-2.7758509 -0.78727,-6.1637772 12.553,-4.28551602 -2.66659,17.4790482 6.05413,15.7969042 2.16061,-4.307853 4.33894,-13.675732 8.88005,-7.081766 -8.64812,-0.525169 -7.49616,9.304219 -3.07077,11.387029 -1.55703,-7.358097 -9.25142,3.551151 -3.22313,0.93748 -5.814,3.485327 -2.18943,17.485082 3.59825,8.261015 3.33285,-3.702293 6.77169,-15.677066 9.61936,-14.668297 -3.66165,2.644176 -6.32236,11.882707 -1.28645,4.055619 -0.70838,5.006944 9.16327,-3.459583 7.92981,0.292363 -6.34835,-1.279048 2.37895,6.014004 -5.01653,5.345714 -10.78579,2.960011 -13.55997,15.491087 -17.93305,24.336009 -3.4466,5.640848 -9.49631,24.935716 3.01709,18.483382 8.76602,-5.379694 15.83387,-12.848637 24.14777,-18.788443 3.0809,-2.570205 16.43057,-8.856661 8.14108,-1.927056 -5.03731,1.016852 -13.04059,10.36175 -3.16969,9.395116 3.88906,-1.741115 17.70275,1.013777 7.80867,2.915489 -6.77073,1.161658 -23.45634,-0.776645 -19.92198,10.22739 9.16225,2.899384 18.44092,-4.109194 27.17574,-6.690121 3.71033,-1.442498 10.96541,-3.558737 4.99433,1.612028 -3.31546,3.877696 2.72959,7.262447 -4.21146,4.718862 -11.51848,-0.760628 -23.79308,0.960441 -33.6688,7.259299 -6.78895,7.092815 5.68306,-2.960994 9.48627,-2.853746 8.72051,-2.434321 18.77221,-5.858543 27.47924,-2.053962 1.3605,9.975063 -13.32983,6.508175 -18.35472,11.843981 6.95736,1.632845 18.0069,-11.396654 21.27163,-0.273142 -6.77632,-2.796343 -1.79798,9.186571 -2.20117,7.812498 -9.79698,-3.151147 -20.70231,-5.846077 -30.61995,-1.631131 -10.08359,3.57678 -20.91784,5.826548 -30.05855,11.585507 2.23746,2.56606 11.41747,-5.758054 16.57538,-5.827407 11.91555,-4.973396 25.36276,-7.384186 37.9683,-3.450565 4.20404,-0.94711 8.7244,3.452113 1.5934,0.901035 -8.35572,-1.287647 -16.85869,-3.74704 -25.24477,-1.082207 -9.47403,2.158664 -18.81302,5.471174 -27.35578,10.055754 -8.30915,6.47618 -13.62745,15.86167 -20.56012,23.5943 -3.77892,6.71696 -4.21842,15.99883 -3.28415,22.81677 4.74119,-0.27699 8.50751,-3.86967 1.57308,0.22254 -0.33063,2.42598 1.65922,5.48293 1.34873,7.72923 -1.58179,0.53222 -4.16958,0.4759 -4.91252,2.36307 -6.33991,-4.45054 2.43714,-16.29178 -5.32552,-22.05733 -5.980144,-7.72927 -8.748717,-17.0031 -13.382564,-25.40141 -2.518434,-3.42508 -2.949684,-10.14535 1.327395,-3.82601 5.973385,1.88333 2.237774,-12.076278 6.277729,-2.67185 -0.382618,8.50541 -0.05479,16.9597 5.52679,24.05983 7.36246,6.13066 7.11248,-11.51373 3.16509,-15.07989 C 97.588431,105.94696 90.328475,95.129847 84.964716,83.236073 82.123946,79.151384 79.827414,71.130111 76.469735,69.381603 69.156503,67.338113 63.889782,51.813281 54.119783,48.603836 48.653346,45.015281 41.124791,40.260287 39.170664,34.465055 40.781816,36.97691 51.931416,46.170988 50.389042,38.810698 50.368398,35.737031 39.168494,29.378231 42.626909,28.637806 Z m 7.44537,7.580723 c 1.199579,-1.057965 -1.52372,-0.534567 0,0 z m -0.56939,7.070459 c 1.381286,0.0069 -2.333994,-1.595765 0,0 z m 0.87801,1.40055 c 3.945417,2.306415 2.947782,1.550542 2.967041,-1.884335 4.775688,-1.834183 -4.051166,-0.218194 -2.967041,1.884335 z m 16.03298,-21.553002 c 2.032063,2.2774 -1.440646,-3.355605 0,0 z m 2.22189,4.68244 c 1.377104,0.04304 -0.892383,-1.387534 0,0 z m 16.00194,-10.641209 c -0.601126,5.895783 -5.781232,19.471703 -3.712637,20.420493 0.986133,-6.964336 6.696669,-20.187692 4.545469,-23.651101 -0.334275,1.061646 -0.56577,2.15128 -0.832832,3.230608 z m -5.4745,30.459801 c 1.76021,6.217357 0.240828,-6.121213 0,0 z m 1.03564,-2.52902 c 1.669694,-1.133235 -1.620598,-2.070113 0,0 z m -0.79777,8.67682 c 2.440337,3.724566 0.411525,-6.949204 0,0 z m 0.64546,4.17945 c 3.130711,-0.94321 -2.412099,-3.181566 0,0 z m 0.38535,5.95793 c 3.533862,-0.826538 -1.885289,-2.737867 0,0 z m 32.646571,-47.04347 c 1.26437,0.06642 -0.87429,-1.077034 0,0 z m -0.79956,3.351988 c 1.16703,3.229719 0.12981,-5.09896 0,0 z M 86.808749,82.068318 c 1.660133,-0.529497 -0.824515,-1.502675 0,0 z m 1.15593,1.38968 c 1.264392,0.0673 -0.873972,-1.077101 0,0 z m -0.0462,0.95255 c 1.433705,-0.224065 -0.878536,-1.131143 0,0 z m 1.14655,2.67805 c 2.094561,-0.349239 -1.258812,-1.511383 0,0 z m 11.463251,-23.59646 c 4.94618,0.921039 -0.760988,-1.905275 0,0 z m 13.24037,-26.246879 c 4.42923,-1.443144 -1.43139,-3.985712 0,0 z M 91.478649,92.414488 c 1.721454,-0.12032 -1.309485,-1.68539 0,0 z m 13.873031,-32.97828 c 1.66048,-0.530393 -0.82528,-1.502059 0,0 z m 4.02503,-7.95977 c 2.89023,-1.157759 -1.38552,-3.600321 0,0 z M 94.056259,98.626549 c 6.477861,8.831161 -3.674344,-12.171236 -0.483089,-1.164163 0.161029,0.388055 0.322059,0.776109 0.483089,1.164163 z M 104.22804,66.813418 c 0.70585,11.480986 -0.1218,22.942565 -0.41447,34.404962 -1.7068,7.52903 7.80623,21.04067 9.20025,7.02974 1.28758,-11.513111 8.50584,-20.911177 14.46308,-30.410001 1.31085,-9.238329 3.25698,-18.026168 6.92053,-26.638608 1.70004,-8.885433 1.80017,-18.482956 -0.87584,-27.124906 -5.93544,-2.514911 -0.001,20.361993 -3.61881,9.33992 -0.0972,-12.274012 -8.69946,1.193361 -11.55933,5.162638 -5.85413,8.621351 -11.61952,18.30961 -14.11541,28.236255 z m 5.69717,-4.82338 c 8.91317,-1.477256 -2.35846,19.144516 0.51248,5.897268 -0.32068,-1.89164 -2.75357,-4.269719 -0.51248,-5.897268 z m 4.3886,-7.8044 c 2.0066,3.936862 -3.53517,4.6682 0,0 z m -3.50285,20.47869 c 1.3611,0.771647 -0.998,0.867477 0,0 z m -0.46053,2.09273 c 2.08305,5.604023 -1.83268,1.909422 0,0 z m -0.68472,4.59449 c 4.23671,3.84025 -3.04538,5.762898 0,0 z m 0.26554,6.78709 c 3.75109,3.675176 -1.39369,12.469582 -0.26221,3.14692 -0.0351,-0.888271 -1.00772,-2.646349 0.26221,-3.14692 z m 3.50287,-43.59341 c 2.55872,-1.036555 -1.10123,-2.675761 0,0 z m 1.81859,-3.39058 c -1.67736,4.124563 3.03832,-5.824259 0,0 z m 6.83077,-8.858682 c 3.5931,-3.834325 12.83993,-11.064171 12.01684,-13.504434 -4.26429,4.214397 -9.3715,7.974263 -12.01684,13.504434 z m 7.70043,-4.00385 c 0.74025,1.117058 -0.20366,-3.346387 0,0 z m -27.6122,78.962974 c 2.07458,-1.78852 -2.915498,-0.74697 0,0 z m 0.49217,2.22387 c 2.53726,-0.22191 -0.82527,-1.69856 0,0 z m 0.80655,2.31449 c 2.52525,0.57259 -2.88334,-2.87179 0,0 z m -0.0774,2.40796 c 3.22003,3.07725 0.27166,-3.97409 0,0 z M 145.9691,12.712904 c 2.38316,-0.364106 -1.92244,-1.754498 0,0 z m -6.26179,14.270862 c 2.47007,-0.791004 -0.90684,-2.07861 0,0 z m -23.40649,73.253664 c -3.26896,3.96625 1.4843,8.40794 0.41126,1.55522 0.92931,-2.551662 7.63449,-13.116361 1.69148,-7.26733 -0.76548,1.880126 -1.32939,3.834995 -2.10274,5.71211 z M 136.4358,52.512448 c 0.91775,3.424368 0.73176,-5.750747 0,0 z m -5.72809,15.66069 c 2.13336,0.627331 -0.85588,-1.330515 0,0 z m -8.94092,22.7527 c 2.0283,0.04843 -0.59748,-1.437317 0,0 z m 1.93219,-1.94001 c 2.0728,-2.287804 13.85758,-9.106586 8.30788,-9.002013 -3.47097,2.037922 -8.48818,4.184767 -8.30788,9.002013 z m -5.47849,14.438712 c 3.41787,8.61034 14.27912,-3.614114 17.31834,-8.097652 6.67122,-9.201447 14.99008,-17.333476 20.50506,-27.304088 -9.17184,1.205108 -18.39409,11.455832 -26.7239,17.191312 -5.54431,4.345096 -10.0623,11.14127 -11.0995,18.210428 z m -7.57604,19.1107 c 2.03487,-1.42064 -1.08224,-1.93938 0,0 z m 3.12211,-5.62152 c 3.6387,-2.64611 0.74708,-5.39048 0,0 z m -2.98068,8.62354 c 3.47485,2.85222 6.20439,-10.00905 11.01111,-11.50929 3.92219,-2.98067 5.52175,-7.22182 -0.45889,-2.77126 -5.22958,3.12029 -8.7573,8.55873 -10.55222,14.28055 z m -3.19556,9.99592 c 3.37967,0.55793 -1.24489,-3.96633 0,0 z M 152.06918,26.721126 c 3.68041,0.536559 0.31505,-2.302473 0,0 z m -34.79507,86.141824 c 1.97017,-0.079 -0.58452,-1.41683 0,0 z m -11.95912,30.455 c 2.65837,4.60272 -2.34406,15.98534 1.357,16.13755 1.17053,-6.6213 1.18326,-14.31486 -0.17448,-20.48782 -0.8453,1.26905 -1.28682,2.82558 -1.18252,4.35027 z M 151.85421,29.054776 c 2.38444,0.167092 -0.52911,-1.900057 0,0 z M 118.7568,111.78829 c 3.31187,-0.14137 10.9153,-8.04428 3.42825,-3.26734 -1.41838,0.57485 -3.30922,1.51234 -3.42825,3.26734 z m 35.13285,-83.435334 c 5.62683,-0.864343 -1.66367,-3.433978 0,0 z m 1.38715,-3.04689 c 1.70163,0.002 -0.40867,-1.138524 0,0 z m -20.62115,52.880542 c 6.09003,1.699246 3.91352,-5.737206 0,0 z m 22.23627,-51.591182 c 2.31497,2.26784 -0.0479,-2.989368 0,0 z M 140.085,75.968978 c 1.9102,-1.943239 -1.48827,-1.607249 0,0 z m -31.75046,79.093802 c -0.66321,10.4132 5.01584,-2.40376 0,0 z m 33.41082,-80.909652 c 3.32682,0.588787 0.0935,-3.88032 0,0 z m 1.51462,-2.38993 c 8.17296,-1.179568 14.37129,-8.700438 23.06227,-8.044579 3.77577,-0.151623 15.21311,-1.157438 13.76451,-2.278817 -12.06067,-0.737195 -24.82095,1.094069 -34.64074,8.647089 -0.48163,0.803511 -2.67151,0.317892 -2.18604,1.676307 z m -3.90348,21.73867 c 3.98811,-2.908126 -2.62383,0.42015 0,0 z m 2.97509,-3.97557 c 4.9953,-0.992194 0.73353,-4.516578 0,0 z m -2.03141,6.53827 c 14.48531,0.720289 25.77384,-10.428939 39.39129,-13.441097 3.9242,-1.435982 8.72817,-0.784504 6.67004,-4.897898 5.07478,-4.091493 -9.23215,-3.197226 -12.28621,-2.751003 -12.5342,1.760494 -25.06895,7.66172 -32.81498,17.891089 l -0.6662,1.535313 z m 21.29033,-12.91662 c 2.70235,3.517509 -3.98311,2.704334 0,0 z m -15.54212,3.21993 c 1.66134,-0.533059 -0.92767,-0.848695 0,0 z m 15.24172,-28.19442 c 4.42358,-1.075572 10.26147,-9.431832 2.41731,-3.522391 -0.94687,0.802227 -2.96437,1.968334 -2.41731,3.522391 z m 9.41352,-6.90502 c 4.045,-2.080886 5.74512,-4.726204 0.62012,-1.201058 -0.38496,-0.148395 -1.44846,0.936555 -0.62012,1.201058 z m 9.79334,19.32907 c 4.41853,-0.317737 14.78003,-7.379723 4.43878,-3.376804 -1.34336,0.722105 -5.12983,1.177831 -4.43878,3.376804 z m -4.40887,19.38456 c 4.22331,-0.461785 16.23447,7.869331 10.2835,-0.260513 8.3415,-10.087829 -13.55179,-6.208044 -10.2835,0.260513 z m 2.01979,-1.94885 c 0.73997,3.022612 -1.53764,-0.167198 0,0 z m 3.57139,0.48204 c 6.7825,-0.687498 -0.5375,3.223162 0,0 z m 3.52665,-16.20556 c 3.98911,4.338356 3.20528,-7.295851 1.42966,-3.862043 -1.57413,0.557684 -5.30402,3.162726 -1.42966,3.862043 z m 1.74139,7.15614 c 1.90972,-0.03572 -1.35889,-1.304588 0,0 z m 1.77399,5.91766 c 2.70694,0.608149 -0.0971,-2.618427 0,0 z M 33.718319,59.226938 c 7.820005,-0.05534 2.18529,5.058551 -1.605699,0.533624 l 0.363252,-0.457554 z m 7.23525,-19.69135 c 3.603558,2.298599 3.740551,8.691389 0.544278,2.317106 0.115699,-0.54797 -1.550978,-1.732059 -0.544278,-2.317106 z m -2.61634,6.95026 c 8.492475,4.287619 16.614216,10.203764 22.182864,17.762638 3.533207,3.51655 13.846323,8.57141 12.37047,11.977159 -2.806362,-1.594176 -11.428644,-11.043828 -7.76521,-1.993258 -3.761821,2.34989 -3.335422,-9.94317 -9.995855,-8.251301 C 50.66752,64.904553 44.404386,61.085705 49.278143,57.6931 47.363015,52.42576 40.435636,51.515701 38.337229,46.485848 Z m 6.02889,5.14676 c 5.402039,1.904184 -6.245983,-4.864319 -0.605525,-0.431671 5.77e-4,-0.571964 0.509429,0.663895 0.605525,0.431671 z m 5.46275,4.8981 c 3.361943,1.152588 -1.172968,-3.073222 0,0 z m 1.87537,6.84226 c 4.951344,1.041618 -4.242894,-2.284921 0,0 z m 2.93093,-4.64619 c 1.264382,0.06731 -0.873952,-1.077123 0,0 z m 0.0923,5.68525 c 6.20269,6.055211 3.605102,-3.9006 0,0 z m 5.15297,3.10271 c 3.69265,0.747707 0.897517,-4.431705 0,0 z m 1.47492,0.92698 c 3.741273,1.565576 1.570628,-3.307603 0,0 z m -38.99672,16.83669 c 2.553445,0.92963 -2.143733,1.718242 0,0 z m 24.41968,-58.798892 c 0.878534,1.131644 -1.434443,0.223695 0,0 z m 6.26235,-4.6662 c -3.011561,0.568806 1.02597,-3.423402 0,0 z m -0.57336,-0.11347 c 1.617286,-0.300233 -1.273178,-1.914749 0,0 z m 4.4707,-5.728698 c 3.097525,3.293934 -2.92089,0.758731 0,0 z m 2.25516,4.373338 c 2.109769,1.653368 -0.794438,1.027794 0,0 z m -31.36714,78.373903 c 1.029475,0.6552 -1.542436,-0.311643 0,0 z m -0.34443,0.843364 c 1.029452,0.655387 -1.542817,-0.312097 0,0 z m 33.75428,-76.205757 c 5.104376,1.735434 2.74012,6.747149 0,0 z m -19.96157,52.939292 c 5.787631,1.13667 -0.12944,4.713229 0,0 z m 26.58309,-62.240555 c 0.669674,-1.313639 -0.09063,4.453575 2.523704,1.157195 -2.69778,4.403113 -2.032016,0.741558 -3.891605,-0.756837 z m 0.24709,3.238463 c 1.264618,0.06706 -0.874169,-1.077487 0,0 z m -9.40051,17.523787 c 5.007747,5.999016 12.738849,12.493228 14.772188,19.31876 C 67.483159,49.19286 61.152125,42.598353 58.137656,35.527254 Z m 4.10863,7.526715 c 1.590634,3.571107 8.694335,7.736964 3.073294,1.829094 -1.660281,-3.639578 -9.251355,-10.987242 -3.715252,-2.688656 0.192085,0.302107 0.436807,0.566754 0.641958,0.859562 z m -27.88759,54.28263 c 3.764873,1.712209 11.516558,-2.925997 11.578663,3.636842 4.909856,-2.388227 3.623763,4.38037 2.402788,0.55473 -2.051757,1.53111 -5.872318,6.98428 -5.887433,1.90286 7.695137,1.65354 -2.207954,-4.15712 -6.098923,-2.08067 -9.368379,-0.984106 2.093392,-0.33352 -1.995095,-4.013762 z m 1.40197,2.391548 c 1.685309,2.785194 1.458118,-1.920002 0,0 z m 17.61604,-47.892548 c 4.258984,0.434018 -2.103751,3.506218 0,0 z m 14.98976,-36.7492 c 3.024643,0.914625 -2.015335,1.654314 0,0 z m -25.35956,64.797 c 4.119058,-4.886889 14.649111,5.967913 5.052594,3.774025 -4.385649,-3.133994 0.544405,-1.285474 2.014482,0.188014 2.712022,-4.249573 -6.224413,-4.699613 -7.021114,-3.088417 -0.02536,-0.296483 -1.116255,-0.884525 -0.04596,-0.873622 z m 13.2929,-25.1234 c 1.411662,2.210709 -2.798759,1.900141 0,0 z m 7.27471,-17.048729 c 3.233484,3.170124 -1.584906,1.24205 0,0 z m -6.35391,19.703779 c 4.065942,3.675248 -1.099008,3.072174 0,0 z m -17.10273,45.056592 c 1.26546,1.62715 -2.012109,0.27843 0,0 z m -0.0255,4.54623 c 6.808918,-2.72653 0.350041,4.74666 -1.39121,-0.30432 l 0.332735,-0.0941 z m -1.56354,1.01629 c 7.099778,1.2055 1.169564,4.38039 0,0 z m 21.12082,-46.755262 c 2.699618,0.697508 -2.034591,1.146453 0,0 z m -20.06718,50.039552 c 1.290938,1.91767 -1.886576,0.52536 0,0 z m 6.8185,-5.49752 c 3.005746,-0.58232 -3.35168,1.4981 0,0 z m 1.68245,-2.44638 c -0.0261,1.76257 -0.611811,-0.39816 0,0 z m 0.5588,0.587 c 1.421278,-0.24199 -1.856463,1.144 0,0 z M 96.338859,4.0026988 C 102.14453,3.285433 95.020192,16.389133 99.909637,11.765468 100.16509,8.0865093 99.387894,18.608063 97.682935,11.81081 95.447072,8.2483961 97.635291,7.2140525 98.926388,6.2543778 97.04817,2.0387997 96.02088,6.9673315 93.226996,6.7654996 96.51131,17.306583 84.864374,-0.24118183 96.338859,4.0026988 Z m -2.74794,1.582565 c 4.479146,0.749316 -4.24546,-2.6465179 0,0 z m -1.80384,2.8550911 c 4.665006,1.5699651 -1.517231,-3.9397261 0,0 z M 56.167919,91.903128 c 4.425868,1.885421 5.222066,9.975432 1.046644,2.690111 -0.204456,-0.605949 -2.354653,-2.061141 -1.046644,-2.690111 z m 1.94251,3.68326 c 3.400846,5.188922 0.16235,-2.601161 0,0 z M 47.800329,122.756 c 3.872369,0.43793 -3.333202,1.10359 0,0 z M 97.849229,6.8302268 c 1.523629,0.5346846 -1.199535,1.0579398 0,0 z M 51.368329,120.68427 c 3.141888,2.53539 -1.727158,2.42863 0,0 z m 0.11334,1.47845 c 1.264805,0.0673 -0.873905,-1.07731 0,0 z M 98.783019,10.544032 c 1.468221,2.781724 -1.696797,1.840475 0,0 z m -34.60054,85.437616 c 4.149005,0.810535 1.659338,3.253165 0,0 z M 103.75554,6.9960428 c -0.40376,4.1147122 10.07249,10.9896252 2.49932,6.0657132 -0.77268,-1.148851 -5.09855,-5.2359334 -2.49932,-6.0657132 z m -1.01732,1.4363341 c 0.87947,1.1314767 -1.43468,0.2237876 0,0 z m -2.25712,7.5739081 c 0.0933,4.84735 -0.657275,-2.441772 0,0 z m 4.47729,-10.4790222 c 0.89121,1.3878844 -1.37712,-0.043268 0,0 z m -4.70184,12.5383832 c 1.66301,4.806662 -1.648487,3.292788 0,0 z M 70.857539,91.114538 c 1.428316,1.178198 -1.361979,0.130293 0,0 z m -2.24665,7.103874 c 4.445371,0.145384 9.416078,6.421158 2.413327,1.703676 -0.541346,-0.611312 -2.461314,-0.626766 -2.413327,-1.703676 z M 106.47275,7.4301768 c 6.58059,-3.9082401 0.94963,10.0608902 2.19707,1.7391277 l -0.86044,-1.177872 z m 3.48411,1.0477681 c 2.72978,-0.2341962 -1.87914,-1.9560519 0,0 z m -3.80603,0.142298 c 0.48144,1.9085551 -0.73618,-0.8217142 0,0 z m -0.73986,1.3930121 c 6.20301,-1.3369619 1.21216,6.754574 0,0 z m 1.40743,-1.7095868 c 3.40092,1.8516708 -0.85076,1.4729411 0,0 z M 72.029739,93.156108 c 2.301768,1.558297 0.96257,2.46958 0,0 z m 13.21726,-25.31283 c 4.277686,1.421313 -1.314235,3.667733 0,0 z m 1.6553,3.90774 c 4.598045,1.484019 7.609946,15.351398 1.950602,6.365702 -1.034523,-1.921755 -2.706679,-4.044646 -1.950602,-6.365702 z m -10.85731,27.388238 c 0.878519,1.131654 -1.43448,0.223624 0,0 z M 119.76675,17.15256 c 1.34228,3.149747 -3.50718,3.543378 0,0 z m 13.01977,-9.7249592 c 0.87855,1.1316899 -1.43454,0.2235231 0,0 z M 99.371709,116.99938 c 3.888081,3.23927 -1.923719,0.49194 0,0 z m 1.566841,2.55504 c 2.88281,4.48929 -1.476213,2.86092 0,0 z m 0.60298,4.1843 c 2.01635,3.78805 -2.189134,3.46027 0,0 z M 146.55978,23.093556 c 2.35946,-0.247933 -2.23729,0.861367 0,0 z m 1.53199,0.44765 c 1.48208,0.869688 -1.89778,0.0096 0,0 z m -7.11135,29.334602 c 3.85787,-1.824337 8.35766,-11.614039 10.6712,-9.430737 -0.62959,2.411181 -13.03658,13.3134 -10.6712,9.430737 z m 7.64373,-6.58091 c 4.08659,-4.089768 -2.72456,1.086716 0,0 z m 10.57028,-17.400152 c 1.80597,1.369467 -2.75825,0.445534 0,0 z m 1.27289,-1.52582 c 3.5045,-2.66366 2.0225,1.290727 -0.29271,0.831291 z m 1.0749,-0.10394 c 1.77833,0.200583 -0.7178,-1.227681 0,0 z m -2.4235,7.674687 c 6.68172,0.498829 7.34522,-11.389481 13.38278,-3.656202 1.28974,3.98776 -0.93812,9.381949 4.80191,5.770913 0.0165,-2.809021 1.63127,-3.430169 -2.80862,-4.564983 1.60837,-1.295972 5.58472,-8.775342 4.26701,-1.86963 -2.51515,3.247137 5.03149,0.22154 -0.17908,3.588446 2.74948,5.086878 -12.18423,8.944914 -6.05141,9.832057 2.6335,-3.532655 11.30752,-0.814084 3.30497,0.11975 -4.41405,-1.774833 -2.20374,4.173339 -6.66011,1.082782 -4.17303,-0.68365 5.33785,-5.836345 1.84881,-9.689741 5.29526,-3.752354 -5.45253,-3.771986 -2.45423,1.753603 2.20273,3.699944 -2.21483,1.028253 -0.65681,-0.697374 -4.17159,-0.828748 -7.44222,0.03628 -1.41118,-0.761961 2.79696,-2.201881 -3.10272,-4.792848 -0.0381,-1.154883 -3.16788,-0.04663 -6.71893,-0.681447 -5.88355,2.986362 -4.67846,1.351733 -0.22293,-1.79887 -1.46243,-2.739139 z m -0.77987,3.429615 c 2.08891,-0.157861 1.92168,-2.782224 0,0 z m 9.14386,-5.249902 c 1.93175,-1.303183 -2.16143,-1.210754 0,0 z m 0.45094,1.784087 c 2.34901,1.997171 -0.55487,-2.925663 0,0 z m 1.33201,-2.448457 c 3.75213,1.579526 -0.41864,-2.722701 0,0 z m 2.18439,0.0329 c 3.20684,0.06071 -0.55333,-1.886871 0,0 z m -0.70217,4.514063 c 2.16538,-0.371448 -1.0938,-1.206742 0,0 z m 3.88702,1.716589 c 4.40463,0.403742 -3.49224,-1.500219 0,0 z m 2.4555,-6.436922 c 1.31905,0.425743 -0.40191,-2.412438 0,0 z m -2.49857,7.808812 c 1.26509,0.06599 -0.87495,-1.076694 0,0 z m 2.18921,-4.046449 c 2.07111,0.09929 -2.47042,-1.412254 0,0 z m -0.41547,3.077889 c 1.43454,-0.223491 -0.87853,-1.131722 0,0 z m 3.38528,-6.191262 c 1.93654,-1.438162 -1.66718,-0.23672 0,0 z M 109.22856,161.92327 c 1.16547,1.1802 -1.97126,0.21794 0,0 z m 1.35246,1.18937 c 1.24946,0.74874 -1.4671,-0.26643 0,0 z M 169.34746,37.436018 c 2.23497,0.669259 -1.6524,1.957781 0,0 z m 5.05476,-5.568202 c -2.19466,2.517166 0.27318,-3.958758 0,0 z m -3.04884,6.074612 c 0.43211,0.860413 -1.35976,0.07201 0,0 z m 10.1594,-6.451372 c 2.69265,1.157932 -1.30029,2.021948 0,0 z m -6.69401,22.977642 c -0.0298,2.35526 -0.81295,0.06826 0,0 z m 6.03708,-11.37015 c 2.44203,-0.396277 -1.43102,2.853937 0,0 z m -2.34848,9.73214 c 6.50721,-4.763579 4.6057,3.908802 0,0 z m 3.04408,0.12842 c 2.95973,0.326641 -1.56057,-2.078292 0,0 z m 0.11727,-3.82442 c 6.34768,0.546477 -1.69002,2.600929 -0.001,-5e-5 z m 4.04842,2.11237 c 1.35893,1.304735 -1.90982,0.0357 0,0 z m 2.13541,1.10061 c 0.82445,1.502402 -1.65981,0.529902 0,0 z m -5.1279,41.75232 c 1.02905,0.655643 -1.54276,-0.312298 0,0 z m 8.46935,-17.78683 c 2.38074,0.72021 -1.49717,0.684252 0,0 z m -1.4428,4.88107 c 3.51593,0.728248 -2.11729,2.648285 0,0 z m 1.82886,-0.36365 c 0.88464,1.021004 -1.88807,-0.09875 0,0 z m 1.29301,4.09397 c 1.14808,1.974787 -1.5707,-0.0224 0,0 z"
       id="path15994" />
    <path
       style="fill:#000000;fill-opacity:1;stroke-width:0.311257"
       d="m 11.820784,62.810172 c 4.471114,2.007608 -3.7308443,1.761579 0,0 z m 27.11633,48.749788 c 1.85952,-12.4074 14.749062,-0.25311 21.857675,-0.34189 7.725637,-4.29202 -8.085029,-6.04478 -11.539707,-7.7422 4.733981,0.5674 14.614043,-0.9761 5.572623,-4.855606 -7.183025,-5.069408 6.490455,0.988494 7.795179,3.237286 4.21145,2.7443 12.709674,13.48701 15.984418,8.17222 0.501337,-8.65248 -6.632211,-13.651812 -8.310405,-20.824395 -1.322652,-2.363508 -5.227315,-6.475708 -3.405519,-2.146732 -8.464671,-7.049727 -18.258615,-12.876649 -29.308253,-14.680709 -6.192221,-2.0924 -14.268483,-0.147306 -19.352538,-2.073022 6.987211,-3.253108 14.404752,0.0026 21.508533,0.111887 -7.760541,-4.06522 -17.120063,-4.062507 -24.44644,-9.004011 -4.071933,-5.862928 7.990414,2.150124 10.786576,-0.06459 4.379198,1.518355 12.568441,6.380843 15.699723,2.456937 -3.393799,-7.125532 -13.747031,-11.29821 -13.982545,-20.023462 5.143551,7.184264 14.185104,11.959132 16.547805,20.790755 4.827519,4.39482 11.207604,14.388449 18.323955,9.921861 1.964284,0.305427 -6.174575,3.48428 1.233743,2.835865 4.293302,0.573309 6.485698,14.76252 11.038399,8.778582 0.599339,-2.746331 -4.430267,-15.585153 0.135815,-7.312157 0.971811,-4.196446 3.125001,-7.049024 2.658074,-0.705327 -1.838381,10.235071 -0.261851,20.376712 3.531796,29.939739 1.581863,9.65691 9.552861,16.72405 10.515748,26.41582 -0.180311,2.99523 2.902552,6.4104 5.054348,2.63547 -0.759703,3.9575 0.928221,15.03496 -1.742427,13.83663 -1.910821,-10.24047 -9.206143,-18.01146 -18.858498,-21.47258 -8.373431,-4.37802 -18.084402,-8.43454 -27.583327,-5.4797 -10.384096,0.45574 13.056866,-3.77535 0.633972,-6.40529 -8.324815,1.07546 -7.480691,-7.29211 -2.535041,-9.4679 -3.64241,-2.22236 -6.701735,-1.05104 -3.69433,1.52724 -1.484624,0.73226 -4.176242,-1.10678 -4.119352,1.93928 z M 15.594044,60.861322 c 11.145843,4.459575 22.983882,7.39631 33.33746,13.61989 2.969453,1.528802 14.701774,8.655789 6.554923,2.624636 -9.986206,-6.957321 -21.26709,-11.652202 -33.010322,-14.686084 -1.040393,0.13352 -12.42143,-5.954133 -6.882061,-1.558442 z m 14.21661,-11.98217 c 2.605234,4.281327 5.244839,4.348014 1.070136,-0.426972 -0.454006,-1.100604 -1.332029,-0.151629 -1.070136,0.426972 z m -7.8324,21.81668 c 4.616087,-0.284668 7.714422,-1.25266 1.180004,-0.625257 0.137855,-0.314592 -5.023636,0.753758 -1.180004,0.625257 z m 7.40294,-0.32289 c -0.166588,-1.889288 -3.629173,0.641793 0,0 z m 1.23151,0.13446 c 2.873943,0.05818 -1.690542,-0.962564 0,0 z m 12.73594,42.766318 c 5.692727,6.12154 2.349577,-7.00773 0,0 z m 3.04535,-5.89143 c 1.812263,0.0246 -1.918304,-1.36385 0,0 z m -3.41607,8.38152 c 1.844298,-0.55555 -1.098017,-1.27083 0,0 z m 2.52475,-0.12765 c 10.236142,1.18974 18.740552,8.07147 28.52506,10.48806 -0.514171,-8.83444 -14.341419,-14.59854 -22.921833,-14.87235 -3.970867,0.28415 -4.40518,4.20911 -5.603227,4.38429 z m 23.55169,4.51972 c 5.78336,2.79799 -2.658918,2.1565 -0.706129,-0.19519 l 0.472856,0.13071 z m 4.07068,3.58161 c 0.981122,0.4833 -1.46339,0.34859 0,0 z m -7.65383,-43.129178 c 6.144168,7.108516 -4.380766,-8.159288 -0.871109,-1.100217 0.29037,0.366739 0.580739,0.733478 0.871109,1.100217 z m -10.77388,23.886218 c -0.137459,-0.79438 -2.460749,1.5e-4 0,0 z m 9.10357,-23.387858 c 4.210337,2.707196 -1.37515,-2.753773 0,0 z m -0.04,1.44775 c 3.703622,1.564152 1.322703,-2.256009 0,0 z m -10.60319,28.255918 c 6.947755,3.28073 -1.416175,-2.84558 0,0 z m 5.24214,-10.78273 c 0.422885,-0.617296 -1.906933,0.0226 0,0 z m 2.4964,2.59082 c 4.072422,9.04982 2.796648,-4.105555 -0.847207,-0.67808 z m -5.99424,16.70989 c 3.934989,1.19209 -4.261861,-2.60354 0,0 z m 2.33648,2.81773 c 1.192174,-1.00709 -2.338669,-0.46579 0,0 z m 19.21421,-44.920418 c 0.457649,8.373244 -5.916337,16.953111 1.011538,24.380578 4.598905,7.23237 -2.847082,15.22831 6.029257,19.05726 7.477316,4.44447 3.807499,15.61925 9.039414,19.59608 -0.603971,-8.77563 -4.081698,-17.05252 -9.926749,-23.70919 C 81.449687,105.37691 74.34662,95.032831 76.77332,83.453239 77.590861,82.271552 76.94508,71.809901 76.452704,77.225632 Z m -14.21249,35.800258 c 0.504462,-1.14939 -1.961158,0.20259 0,0 z m 5.68304,-0.78134 c 6.135336,6.51079 11.522873,19.7397 20.892892,19.58795 -0.189557,-8.91594 -9.924069,-13.18773 -15.705752,-18.65245 -2.412998,-1.89735 -11.802963,-8.61648 -5.18714,-0.9355 z m -2.26295,-0.41752 c 2.941184,5.50239 2.608496,0.52731 -0.182019,-1.37785 z m 4.34668,-1.98019 c 1.909847,-0.0356 -1.358908,-1.30463 0,0 z m 2.776,2.1605 c 3.664211,2.45742 -2.175529,-3.06751 0,0 z m 3.76489,2.32851 c 1.265224,-2.43015 -3.25632,-0.48302 0,0 z m -0.86999,13.45866 c 1.018043,-1.00656 -1.991748,0.33573 0,0 z m 1.32644,-0.41951 c 0.278037,4.713 16.503434,9.92846 6.474915,4.40846 -1.410964,-0.4996 -5.681692,-8.25732 -6.474915,-4.40846 z m 17.29169,16.58018 c -0.07198,9.17986 3.432606,-0.36581 0.770563,-2.75657 -0.814297,0.66015 -1.046168,1.79407 -0.770563,2.75657 z m -83.0268,-75.521408 c 0.878515,1.131655 -1.4344755,0.223554 0,0 z m -2.2210006,5.22922 c 4.0421676,0.207171 1.5097046,2.950764 0,0 z m 2.3045306,-3.74564 c 0.873593,1.07743 -1.264084,-0.06692 0,0 z m 6.44924,20.78777 c 3.904973,-2.842247 20.129588,-1.148697 13.711102,-8.393389 -2.589501,-0.92021 -16.170069,-6.245358 -7.328642,-4.861745 8.913434,2.743291 20.120402,5.802824 25.399828,13.471822 -8.204739,1.068809 -19.111454,-1.253382 -28.321878,1.430666 -1.337091,0.297282 -6.730356,1.04048 -3.46041,-1.647354 z m 0.56809,1.3045 c 9.98969,-1.076708 20.109007,-2.615948 30.14231,-1.12952 -7.32961,-4.769647 -16.982014,-2.234334 -25.023918,-0.891631 -1.758318,0.415212 -3.798071,0.638467 -5.118392,2.021151 z m 9.45618,-11.79457 c 2.765576,1.979266 14.755449,6.634997 6.485749,1.467163 -2.408379,-1.290013 -14.749091,-5.133918 -6.485749,-1.467163 z m -8.63284,-24.39563 c 5.145746,2.308299 -1.738308,2.227713 6e-5,-1.8e-4 z m -3.5404,10.92063 0.749868,1.063046 z m 2.00643,-3.40631 c 1.357797,1.305569 -1.909759,0.03431 0,0 z M 32.253024,27.96055 c 1.546426,1.004935 -1.408877,0.464663 0,0 z m -1.44838,5.285137 c 0.879436,1.131356 -1.434598,0.223886 0,0 z m -9.1123,24.775495 c 1.836925,1.038752 -0.989485,1.346595 0,0 z M 38.787004,20.55516 c 2.132549,5.46853 -4.234293,-2.830608 0,0 z m 1.19848,5.81973 c 11.274614,4.935943 14.810722,17.854506 23.414147,25.766357 2.979107,5.942729 13.672625,8.682208 10.43719,-1.0434 -0.02155,-9.213479 -8.02189,-14.992327 -10.029988,-23.406778 -0.70182,-3.667155 -4.575046,-17.7599654 0.986737,-8.081552 2.961002,4.445711 3.982906,18.910762 10.93689,14.991393 2.859691,-6.802109 1.008653,-14.174262 1.927431,-21.238136 -0.319082,4.014025 3.165485,10.239527 3.573859,2.821451 0.0036,-8.5234603 5.586675,-3.743496 2.150488,1.835321 -3.698987,12.659317 -5.979664,25.962213 -3.743182,39.118974 -0.07066,10.444096 4.914632,19.420048 9.38422,28.430117 0.91093,6.041534 9.003931,11.524789 8.40879,1.829559 C 99.84706,72.123526 95.029673,56.963759 92.117977,42.110419 89.011469,34.895126 90.243576,27.088688 88.250974,19.690226 87.075116,16.016277 82.344697,2.6078534 87.653205,12.660954 c 5.87443,9.793118 3.123293,21.888218 7.975314,32.031116 2.583903,12.099685 12.735821,0.358565 11.243021,-6.996949 -0.39244,-7.065072 -2.58658,-18.862652 -1.41342,-23.19568 4.68052,9.900967 3.37833,-11.3133007 6.27522,-3.872363 2.23971,-3.9097564 2.70671,-4.3891041 1.46342,-0.7594014 4.67029,-0.3713661 -3.90986,5.5058724 -2.50431,9.7601174 -5.07578,6.12347 4.06308,18.214649 8.01485,7.596198 4.0649,-2.967777 4.25879,-13.928258 9.03652,-12.687133 -5.7147,0.921866 -2.88314,10.970623 1.04665,3.814104 3.41703,-4.051413 1.15687,-8.196782 4.50592,-10.2280263 1.28079,-9.2624456 -7.59266,-2.3537913 -7.0667,2.9462093 3.24472,0.723051 1.94268,-7.9940035 3.91797,-2.6515571 -1.37019,9.7966361 -7.12294,-2.7758446 -0.78728,-6.1637775 12.55302,-4.2855237 -2.66658,17.4790476 6.05414,15.7969056 2.16061,-4.307853 4.33894,-13.6757329 8.88005,-7.081766 -8.64813,-0.525172 -7.49616,9.304218 -3.07077,11.387029 -1.55703,-7.358097 -9.25142,3.551151 -3.22313,0.93748 -5.814,3.485327 -2.18943,17.485082 3.59825,8.261015 3.33285,-3.702293 6.77169,-15.677066 9.61936,-14.668297 -3.66165,2.644176 -6.32236,11.882707 -1.28645,4.055619 -0.70838,5.006944 9.16327,-3.459583 7.92981,0.292363 -6.34835,-1.279048 2.37895,6.014004 -5.01653,5.345714 -10.78579,2.960011 -13.55997,15.491087 -17.93305,24.336009 -3.4466,5.640848 -9.49631,24.935716 3.01709,18.483382 8.76602,-5.379694 15.83387,-12.848637 24.14777,-18.788443 3.0809,-2.570205 16.43057,-8.856661 8.14108,-1.927056 -5.03731,1.016852 -13.04059,10.36175 -3.16969,9.395116 3.88906,-1.741115 17.70275,1.013777 7.80867,2.915489 -6.77073,1.161658 -23.45634,-0.776645 -19.92198,10.22739 9.16225,2.899384 18.44092,-4.109194 27.17574,-6.690121 3.71033,-1.442498 10.96541,-3.558737 4.99433,1.612028 -3.31546,3.877696 2.72959,7.262447 -4.21146,4.718862 -11.51848,-0.760627 -23.79308,0.960442 -33.6688,7.259299 -6.78895,7.092815 5.68306,-2.960994 9.48627,-2.853746 8.72051,-2.434321 18.77221,-5.858543 27.47924,-2.053962 1.3605,9.975063 -13.32983,6.508175 -18.35472,11.843981 6.95736,1.632845 18.0069,-11.396654 21.27163,-0.273142 -6.77632,-2.796343 -1.79798,9.186571 -2.20117,7.812498 -9.79698,-3.151147 -20.70231,-5.846077 -30.61995,-1.631131 -10.08359,3.57678 -20.91784,5.826547 -30.05855,11.585523 2.23746,2.56607 11.41747,-5.758066 16.57538,-5.827419 11.91555,-4.973402 25.36275,-7.38419 37.9683,-3.450569 4.20404,-0.947109 8.7244,3.452115 1.5934,0.901035 -8.35572,-1.287648 -16.85869,-3.747038 -25.24477,-1.082208 -9.47404,2.158662 -18.81302,5.471174 -27.35578,10.055771 -8.30914,6.47618 -13.62745,15.86167 -20.56012,23.5943 -3.77892,6.71696 -4.21842,15.99883 -3.28415,22.81677 4.74119,-0.27699 8.50751,-3.86967 1.57308,0.22254 -0.33063,2.42598 1.65922,5.48293 1.34873,7.72923 -1.58179,0.53222 -4.16958,0.4759 -4.91252,2.36307 -6.33991,-4.45054 2.43713,-16.29178 -5.325532,-22.05733 -5.980136,-7.72928 -8.748711,-17.0031 -13.382557,-25.40141 -2.518434,-3.42508 -2.949684,-10.14535 1.327395,-3.82601 5.973385,1.88333 2.237774,-12.076278 6.277729,-2.67185 -0.382618,8.50541 -0.05479,16.9597 5.526793,24.05983 7.362462,6.13066 7.112482,-11.51373 3.165082,-15.07989 C 94.946999,103.68406 87.687058,92.866933 82.323293,80.97316 79.482522,76.88847 77.18599,68.867196 73.82831,67.118687 66.515078,65.075197 61.248357,49.550365 51.478358,46.34092 46.011921,42.752365 38.483366,37.997371 36.529239,32.202139 38.140391,34.713994 49.289991,43.908072 47.747617,36.547782 47.726973,33.474116 36.527068,27.115315 39.985484,26.37489 Z m 7.44537,7.580723 c 1.199579,-1.057965 -1.52372,-0.534567 0,0 z m -0.56939,7.070459 c 1.381286,0.0069 -2.333994,-1.595765 0,0 z m 0.87801,1.40055 c 3.945417,2.306415 2.947783,1.550542 2.967041,-1.884334 4.775687,-1.834183 -4.051166,-0.218196 -2.967041,1.884334 z M 63.772454,20.87362 c 2.032063,2.2774 -1.440646,-3.355605 0,0 z m 2.22189,4.68244 c 1.377104,0.04304 -0.892383,-1.387534 0,0 z m 16.00194,-10.641209 c -0.601126,5.895783 -5.781232,19.471703 -3.712637,20.420493 0.986133,-6.964336 6.696669,-20.187692 4.545469,-23.651101 -0.334275,1.061646 -0.56577,2.15128 -0.832832,3.230608 z m -5.4745,30.459801 c 1.76021,6.217357 0.240828,-6.121213 0,0 z m 1.03564,-2.52902 c 1.669694,-1.133235 -1.620598,-2.070113 0,0 z m -0.79777,8.67682 c 2.440337,3.724566 0.411525,-6.949204 0,0 z m 0.64546,4.17945 c 3.130711,-0.94321 -2.412099,-3.181566 0,0 z m 0.38535,5.95793 c 3.533862,-0.826538 -1.885289,-2.737867 0,0 z m 32.646576,-47.04347 c 1.26437,0.06642 -0.87429,-1.077034 0,0 z m -0.79956,3.351988 c 1.16703,3.229719 0.12981,-5.09896 0,0 z M 84.167324,79.805402 c 1.660133,-0.529497 -0.824515,-1.502675 0,0 z m 1.15593,1.38968 c 1.264392,0.06731 -0.873972,-1.077101 0,0 z m -0.0462,0.95255 c 1.433705,-0.224065 -0.878536,-1.131143 0,0 z m 1.14655,2.67805 c 2.094561,-0.349239 -1.258812,-1.511383 0,0 z m 11.46325,-23.59646 c 4.946176,0.921038 -0.76099,-1.905275 0,0 z M 111.12723,34.982343 c 4.42923,-1.443144 -1.43139,-3.985712 0,0 z M 88.837224,90.151572 c 1.721454,-0.12032 -1.309485,-1.68539 0,0 z m 13.873036,-32.97828 c 1.66048,-0.530393 -0.82528,-1.502059 0,0 z m 4.02503,-7.95977 c 2.89023,-1.157759 -1.38552,-3.600321 0,0 z m -15.320456,47.15011 c 6.477862,8.831178 -3.67434,-12.171239 -0.483089,-1.164162 0.16103,0.388054 0.322059,0.776108 0.483089,1.164162 z m 10.171786,-31.81313 c 0.70585,11.480988 -0.1218,22.94257 -0.41447,34.404967 -1.706807,7.529041 7.80624,21.040691 9.20025,7.029741 1.28758,-11.51311 8.50583,-20.911181 14.46308,-30.410007 1.31085,-9.238329 3.25698,-18.026168 6.92053,-26.638608 1.70004,-8.885433 1.80017,-18.482956 -0.87584,-27.124906 -5.93544,-2.514911 -0.001,20.361993 -3.61881,9.33992 -0.0972,-12.274012 -8.69946,1.193361 -11.55933,5.162638 -5.85413,8.621351 -11.61952,18.30961 -14.11541,28.236255 z m 5.69717,-4.82338 c 8.91317,-1.477256 -2.35846,19.144516 0.51248,5.897268 -0.32068,-1.89164 -2.75357,-4.269719 -0.51248,-5.897268 z m 4.3886,-7.8044 c 2.0066,3.936862 -3.53517,4.6682 0,0 z m -3.50285,20.47869 c 1.3611,0.771647 -0.998,0.867477 0,0 z m -0.46053,2.09273 c 2.08305,5.604023 -1.83268,1.909422 0,0 z m -0.68472,4.59449 c 4.23671,3.84025 -3.04538,5.762898 0,0 z m 0.26554,6.78709 c 3.75109,3.675177 -1.39369,12.469586 -0.26221,3.14692 -0.0351,-0.888271 -1.00772,-2.646349 0.26221,-3.14692 z m 3.50287,-43.59341 c 2.55872,-1.036555 -1.10123,-2.675761 0,0 z m 1.81859,-3.39058 c -1.67736,4.124563 3.03832,-5.824259 0,0 z m 6.83077,-8.858682 c 3.5931,-3.834325 12.83993,-11.064171 12.01684,-13.504434 -4.26429,4.214397 -9.3715,7.974263 -12.01684,13.504434 z m 7.70043,-4.00385 c 0.74025,1.117058 -0.20366,-3.346387 0,0 z m -27.612207,78.96299 c 2.074577,-1.78853 -2.915492,-0.74696 0,0 z m 0.492167,2.22387 c 2.53728,-0.2219 -0.825261,-1.69856 0,0 z m 0.80656,2.31449 c 2.52525,0.57258 -2.883364,-2.87178 0,0 z m -0.0774,2.40796 c 3.22005,3.07726 0.27165,-3.9741 0,0 z M 143.32768,10.449987 c 2.38316,-0.364105 -1.92244,-1.7544979 0,0 z m -6.26179,14.270863 c 2.47007,-0.791004 -0.90684,-2.07861 0,0 z M 113.6594,97.974522 c -3.26898,3.966258 1.4843,8.407948 0.41126,1.555221 0.92931,-2.551667 7.63449,-13.116374 1.69148,-7.267338 -0.76549,1.880128 -1.32939,3.834998 -2.10274,5.712117 z m 20.13498,-47.72499 c 0.91775,3.424368 0.73176,-5.750747 0,0 z m -5.72809,15.66069 c 2.13336,0.627331 -0.85588,-1.330515 0,0 z m -8.94092,22.7527 c 2.0283,0.04843 -0.59748,-1.437317 0,0 z m 1.93219,-1.94001 c 2.0728,-2.287804 13.85758,-9.106586 8.30788,-9.002013 -3.47097,2.037922 -8.48818,4.184767 -8.30788,9.002013 z m -5.47849,14.438728 c 3.41787,8.61034 14.27912,-3.614128 17.31834,-8.097671 6.67122,-9.201446 14.99008,-17.333474 20.50506,-27.304085 -9.17184,1.205108 -18.39409,11.455832 -26.7239,17.191312 -5.54431,4.345099 -10.06231,11.141277 -11.0995,18.210444 z m -7.57604,19.1107 c 2.03487,-1.42064 -1.08224,-1.93938 0,0 z m 3.12211,-5.62152 c 3.6387,-2.64611 0.74708,-5.39048 0,0 z m -2.98068,8.62354 c 3.47485,2.85222 6.20439,-10.00905 11.01111,-11.50929 3.92219,-2.98066 5.52175,-7.22183 -0.45889,-2.77127 -5.22958,3.1203 -8.7573,8.55874 -10.55222,14.28056 z m -3.19556,9.99592 c 3.37967,0.55793 -1.24489,-3.96633 0,0 z M 149.42776,24.45821 c 3.68041,0.536559 0.31505,-2.302473 0,0 z m -34.79507,86.14184 c 1.97017,-0.079 -0.58452,-1.41683 0,0 z m -11.95912,30.455 c 2.65837,4.60272 -2.34405,15.98534 1.35701,16.13755 1.17052,-6.6213 1.18325,-14.31486 -0.17449,-20.48782 -0.8453,1.26905 -1.28682,2.82558 -1.18252,4.35027 z M 149.21279,26.79186 c 2.38444,0.167092 -0.52911,-1.900057 0,0 z m -33.09741,82.73353 c 3.31187,-0.14137 10.9153,-8.04428 3.42825,-3.26734 -1.41838,0.57485 -3.30922,1.51234 -3.42825,3.26734 z m 35.13285,-83.43535 c 5.62683,-0.864343 -1.66367,-3.433978 0,0 z m 1.38715,-3.04689 c 1.70163,0.002 -0.40867,-1.138524 0,0 z m -20.62115,52.880542 c 6.09003,1.699246 3.91352,-5.737206 0,0 z M 154.2505,24.33251 c 2.31497,2.26784 -0.0479,-2.989368 0,0 z m -16.80692,49.373552 c 1.9102,-1.943239 -1.48827,-1.607249 0,0 z m -31.75046,79.093818 c -0.66321,10.4132 5.01584,-2.40376 0,0 z m 33.41082,-80.909668 c 3.32682,0.588787 0.0935,-3.88032 0,0 z m 1.51462,-2.38993 c 8.17296,-1.179568 14.37129,-8.700438 23.06227,-8.044579 3.77577,-0.151623 15.21311,-1.157438 13.76451,-2.278817 -12.06067,-0.737195 -24.82095,1.094069 -34.64074,8.647089 -0.48163,0.803511 -2.67151,0.317892 -2.18604,1.676307 z m -3.90348,21.73867 c 3.98811,-2.908126 -2.62383,0.42015 0,0 z m 2.97509,-3.97557 c 4.9953,-0.992194 0.73353,-4.516578 0,0 z m -2.03141,6.53827 c 14.48531,0.720289 25.77384,-10.428939 39.39129,-13.441097 3.9242,-1.435982 8.72817,-0.784504 6.67004,-4.897898 5.07478,-4.091493 -9.23215,-3.197226 -12.28621,-2.751003 -12.5342,1.760494 -25.06895,7.66172 -32.81498,17.891089 l -0.6662,1.535313 z m 21.29033,-12.91662 c 2.70235,3.517509 -3.98311,2.704334 0,0 z m -15.54212,3.21993 c 1.66134,-0.533059 -0.92767,-0.848695 0,0 z m 15.24172,-28.19442 c 4.42358,-1.075572 10.26147,-9.431832 2.41731,-3.522391 -0.94687,0.802227 -2.96437,1.968334 -2.41731,3.522391 z m 9.41352,-6.90502 c 4.045,-2.080886 5.74512,-4.726204 0.62011,-1.201058 -0.38495,-0.148395 -1.44845,0.936555 -0.62011,1.201058 z m 9.79334,19.32907 c 4.41853,-0.317737 14.78003,-7.379723 4.43878,-3.376804 -1.34336,0.722105 -5.12983,1.177831 -4.43878,3.376804 z m -4.40887,19.38456 c 4.22331,-0.461785 16.23447,7.869331 10.2835,-0.260513 8.3415,-10.087829 -13.55179,-6.208044 -10.2835,0.260513 z m 2.01979,-1.94885 c 0.73997,3.022612 -1.53764,-0.167198 0,0 z m 3.57139,0.48204 c 6.7825,-0.687498 -0.5375,3.223162 0,0 z m 3.52665,-16.20556 c 3.98911,4.338356 3.20528,-7.295851 1.42966,-3.862043 -1.57413,0.557684 -5.30402,3.162726 -1.42966,3.862043 z m 1.74139,7.15614 c 1.90972,-0.03572 -1.35889,-1.304588 0,0 z m 1.77399,5.91766 c 2.70694,0.608149 -0.0971,-2.618427 0,0 z M 31.076894,56.964022 c 7.820005,-0.05534 2.18529,5.058551 -1.605699,0.533624 l 0.363252,-0.457554 z m 7.23525,-19.69135 c 3.603558,2.298599 3.740551,8.691389 0.544278,2.317106 0.115699,-0.54797 -1.550978,-1.732059 -0.544278,-2.317106 z m -2.61634,6.95026 c 8.492475,4.287619 16.614215,10.203765 22.182864,17.762638 3.533207,3.516549 13.846323,8.57141 12.37047,11.977159 -2.806362,-1.594176 -11.428644,-11.043828 -7.76521,-1.993258 -3.761821,2.34989 -3.335422,-9.94317 -9.995855,-8.251301 C 48.026095,62.641637 41.762961,58.822789 46.636718,55.430184 44.72159,50.162844 37.794211,49.252785 35.695804,44.222932 Z m 6.02889,5.14676 c 5.402039,1.904184 -6.245983,-4.864319 -0.605525,-0.431671 5.77e-4,-0.571964 0.509429,0.663895 0.605525,0.431671 z m 5.46275,4.8981 c 3.361943,1.152588 -1.172968,-3.073222 0,0 z m 1.87537,6.84226 c 4.951344,1.041618 -4.242894,-2.284921 0,0 z m 2.93093,-4.64619 c 1.264382,0.06731 -0.873952,-1.077123 0,0 z m 0.0923,5.68525 c 6.20269,6.055211 3.605102,-3.9006 0,0 z m 5.15297,3.10271 c 3.69265,0.747707 0.897517,-4.431705 0,0 z m 1.47492,0.92698 c 3.741273,1.565576 1.570628,-3.307603 0,0 z m -38.99672,16.83669 c 2.553445,0.92963 -2.143733,1.718242 0,0 z M 44.136894,24.2166 c 0.878534,1.131644 -1.434443,0.223695 0,0 z m 6.26235,-4.6662 c -3.011561,0.568806 1.02597,-3.423402 0,0 z m -0.57336,-0.11347 c 1.617286,-0.300233 -1.273178,-1.914749 0,0 z m 4.4707,-5.728698 c 3.097525,3.293934 -2.92089,0.758731 0,0 z m 2.25516,4.373338 c 2.109769,1.653368 -0.794438,1.027794 0,0 z m -31.36714,78.373902 c 1.029475,0.655208 -1.542433,-0.311643 0,0 z m -0.34443,0.84337 c 1.029452,0.655385 -1.542817,-0.312097 0,0 z M 58.594454,21.09308 c 5.104376,1.735434 2.74012,6.747149 0,0 z m -19.96157,52.939292 c 5.787631,1.13667 -0.12944,4.713229 0,0 z m 26.58309,-62.240555 c 0.669674,-1.31364 -0.09063,4.453576 2.523704,1.157195 -2.69778,4.403113 -2.032016,0.741558 -3.891605,-0.756837 z m 0.24709,3.238463 c 1.264618,0.06706 -0.874169,-1.077487 0,0 z m -9.40051,17.523787 c 5.007747,5.999016 12.738849,12.493228 14.772188,19.31876 C 64.841734,46.929944 58.5107,40.335437 55.496231,33.264338 Z m 4.10863,7.526715 c 1.590634,3.571107 8.694335,7.736964 3.073294,1.829094 -1.660281,-3.639578 -9.251355,-10.987242 -3.715252,-2.688656 0.192085,0.302107 0.436807,0.566754 0.641958,0.859562 z m -27.88759,54.28263 c 3.764875,1.712204 11.516565,-2.925996 11.578663,3.636853 4.909856,-2.388233 3.623766,4.380355 2.402786,0.554727 -2.05176,1.531118 -5.872324,6.984288 -5.887429,1.902858 7.695136,1.65356 -2.207948,-4.157123 -6.098925,-2.080667 -9.368263,-0.984102 2.093332,-0.333542 -1.995095,-4.013771 z m 1.40197,2.39155 c 1.685313,2.785214 1.458114,-1.920013 0,0 z m 17.61604,-47.89255 c 4.258984,0.434018 -2.103751,3.506218 0,0 z m 14.98976,-36.7492 c 3.024643,0.914625 -2.015335,1.654314 0,0 z m -25.35956,64.797 c 4.119058,-4.886889 14.649111,5.967913 5.052594,3.774025 -4.385649,-3.133994 0.544405,-1.285474 2.014482,0.188014 2.712022,-4.249573 -6.224413,-4.699613 -7.021114,-3.088417 -0.02536,-0.296483 -1.116255,-0.884525 -0.04596,-0.873622 z m 13.2929,-25.1234 c 1.411662,2.210709 -2.798759,1.900141 0,0 z m 7.27471,-17.048729 c 3.233484,3.170124 -1.584906,1.24205 0,0 z m -6.35391,19.703779 c 4.065942,3.675248 -1.099008,3.072174 0,0 z m -17.10273,45.056601 c 1.265459,1.627147 -2.01211,0.278424 0,0 z m -0.0255,4.546237 c 6.808918,-2.72653 0.350041,4.74666 -1.39121,-0.30432 l 0.332735,-0.0941 z m -1.56354,1.01629 c 7.099778,1.2055 1.169564,4.38039 0,0 z m 21.12082,-46.755278 c 2.699618,0.697508 -2.034591,1.146453 0,0 z m -20.06718,50.039568 c 1.290938,1.91767 -1.886576,0.52536 0,0 z m 6.8185,-5.49752 c 3.005746,-0.58232 -3.35168,1.4981 0,0 z m 1.68245,-2.44639 c -0.0261,1.76257 -0.611811,-0.39815 0,0 z m 0.5588,0.587 c 1.42127,-0.24199 -1.856464,1.14403 0,0 z M 93.697434,1.7397814 c 5.80567,-0.7172634 -1.318669,12.3864336 3.570774,7.7627701 0.25545,-3.6789598 -0.521741,6.8425965 -2.226698,0.045343 -2.235861,-3.5624144 -0.04765,-4.5967607 1.243453,-5.5564348 -1.878218,-4.21557788 -2.905509,0.7129535 -5.699392,0.511122 3.284315,10.5410847 -8.362622,-7.0066825 3.111863,-2.7627999 z m -2.74794,1.582565 c 4.479146,0.749316 -4.24546,-2.64651788 0,0 z m -1.80384,2.855091 c 4.665006,1.5699653 -1.517231,-3.9397257 0,0 z M 53.526494,89.640212 c 4.425869,1.885422 5.222066,9.97543 1.046644,2.690111 -0.204456,-0.605949 -2.354653,-2.061141 -1.046644,-2.690111 z m 1.94251,3.68326 c 3.400848,5.188918 0.16235,-2.60116 0,0 z m -10.3101,27.169628 c 3.872369,0.43793 -3.333202,1.10359 0,0 z M 95.207804,4.5673094 c 1.523629,0.5346846 -1.199535,1.0579398 0,0 z M 48.726904,118.42137 c 3.141888,2.53539 -1.727158,2.42863 0,0 z m 0.11334,1.47845 c 1.264812,0.0672 -0.873916,-1.0773 0,0 z M 96.141594,8.2811154 c 1.468226,2.7817236 -1.696798,1.8404746 0,0 z M 61.541054,93.718732 c 4.149004,0.810532 1.65934,3.253163 0,0 z M 101.11412,4.7331254 c -0.40376,4.1147143 10.07249,10.9896326 2.49931,6.0657106 -0.77267,-1.1488478 -5.098541,-5.2359453 -2.49931,-6.0657106 z m -1.01733,1.436334 c 0.87947,1.1314735 -1.434677,0.2237918 0,0 z m -2.257116,7.5739096 c 0.09331,4.847351 -0.657274,-2.441772 0,0 z M 102.31697,3.2643454 c 0.89121,1.3878844 -1.37712,-0.043268 0,0 z M 97.615124,15.80273 c 1.663015,4.806662 -1.648485,3.292789 0,0 z m -29.39901,73.048892 c 1.428316,1.178198 -1.361979,0.130293 0,0 z m -2.24665,7.10387 c 4.445372,0.145392 9.416077,6.421178 2.413327,1.703686 -0.541347,-0.611313 -2.461318,-0.626773 -2.413327,-1.703686 z M 103.83133,5.1672594 c 6.58059,-3.9082405 0.94963,10.0608926 2.19707,1.739128 L 105.16796,5.728515 Z m 3.48411,1.047768 c 2.72978,-0.2341962 -1.87914,-1.9560519 0,0 z m -3.80603,0.142298 c 0.48144,1.9085569 -0.73618,-0.8217147 0,0 z m -0.73986,1.393013 c 6.20301,-1.3369617 1.21216,6.7545736 0,0 z m 1.40743,-1.709588 c 3.40092,1.8516719 -0.85076,1.4729416 0,0 z M 69.388314,90.893192 c 2.301768,1.558297 0.96257,2.46958 0,0 z m 13.21726,-25.31283 c 4.277686,1.421313 -1.314235,3.667733 0,0 z m 1.6553,3.90774 c 4.598045,1.484019 7.609946,15.351398 1.950602,6.365702 -1.034523,-1.921755 -2.706679,-4.044646 -1.950602,-6.365702 z m -10.85731,27.38824 c 0.87852,1.131657 -1.434482,0.223625 0,0 z M 117.12533,14.889644 c 1.34228,3.149747 -3.50718,3.543378 0,0 z M 130.1451,5.1646834 c 0.87855,1.1316891 -1.43454,0.2235225 0,0 z M 96.730284,114.73648 c 3.888066,3.23927 -1.923718,0.49194 0,0 z m 1.56684,2.55504 c 2.882806,4.48929 -1.476215,2.86092 0,0 z m 0.60298,4.1843 c 2.016346,3.78805 -2.189135,3.46027 0,0 z M 143.91836,20.83064 c 2.35946,-0.247933 -2.23729,0.861367 0,0 z m 1.53199,0.44765 c 1.48208,0.869688 -1.89778,0.0096 0,0 z M 138.339,50.612892 c 3.85787,-1.824337 8.35766,-11.614039 10.6712,-9.430737 -0.62959,2.411181 -13.03658,13.3134 -10.6712,9.430737 z m 7.64373,-6.58091 c 4.08659,-4.089768 -2.72456,1.086716 0,0 z M 156.55301,26.63183 c 1.80597,1.369467 -2.75825,0.445534 0,0 z m 1.27289,-1.52582 c 3.5045,-2.66366 2.0225,1.290727 -0.29271,0.831291 z m 1.0749,-0.10394 c 1.77833,0.200583 -0.7178,-1.227681 0,0 z m -2.4235,7.674687 c 6.68172,0.498829 7.34522,-11.389481 13.38278,-3.656202 1.28974,3.98776 -0.93812,9.381949 4.80191,5.770913 0.0165,-2.809021 1.63127,-3.430169 -2.80862,-4.564983 1.60837,-1.295972 5.58472,-8.775342 4.26701,-1.86963 -2.51515,3.247137 5.03149,0.22154 -0.17908,3.588446 2.74948,5.086878 -12.18423,8.944914 -6.05141,9.832057 2.6335,-3.532655 11.30752,-0.814084 3.30497,0.11975 -4.41405,-1.774833 -2.20374,4.173339 -6.66011,1.082782 -4.17303,-0.68365 5.33785,-5.836345 1.84881,-9.689741 5.29526,-3.752354 -5.45253,-3.771986 -2.45423,1.753603 2.20273,3.699944 -2.21483,1.028253 -0.65681,-0.697374 -4.17159,-0.828748 -7.44222,0.03628 -1.41118,-0.761961 2.79696,-2.201881 -3.10272,-4.792848 -0.0381,-1.154883 -3.16788,-0.04663 -6.71893,-0.681447 -5.88355,2.986362 -4.67846,1.351733 -0.22293,-1.79887 -1.46243,-2.739139 z m -0.77987,3.429615 c 2.08891,-0.157861 1.92168,-2.782224 0,0 z m 9.14386,-5.249902 c 1.93175,-1.303183 -2.16143,-1.210754 0,0 z m 0.45094,1.784087 c 2.34901,1.997171 -0.55487,-2.925663 0,0 z m 1.33201,-2.448457 c 3.75213,1.579526 -0.41864,-2.722701 0,0 z m 2.18439,0.0329 c 3.20684,0.06071 -0.55333,-1.886871 0,0 z m -0.70217,4.514063 c 2.16538,-0.371448 -1.0938,-1.206742 0,0 z m 3.88702,1.716589 c 4.40463,0.403742 -3.49224,-1.500219 0,0 z m 2.4555,-6.436922 c 1.31905,0.425743 -0.40191,-2.412438 0,0 z m -2.49857,7.808812 c 1.26509,0.06599 -0.87495,-1.076694 0,0 z m 2.18921,-4.046449 c 2.07111,0.09929 -2.47042,-1.412254 0,0 z m -0.41547,3.077889 c 1.43454,-0.223491 -0.87853,-1.131722 0,0 z m 3.38528,-6.191262 c 1.93654,-1.438162 -1.66718,-0.23672 0,0 z m -70.52229,128.99265 c 1.16547,1.1802 -1.97126,0.21794 0,0 z m 1.35246,1.18937 c 1.24946,0.74874 -1.4671,-0.26643 0,0 z M 166.70604,35.173102 c 2.23497,0.669259 -1.6524,1.957781 0,0 z M 171.7608,29.6049 c -2.19466,2.517166 0.27318,-3.958758 0,0 z m -3.04884,6.074612 c 0.43211,0.860413 -1.35976,0.07201 0,0 z m 10.1594,-6.451372 c 2.69265,1.157932 -1.30029,2.021948 0,0 z m -6.69401,22.977642 c -0.0297,2.35526 -0.81295,0.06826 0,0 z m 6.03708,-11.37015 c 2.44203,-0.396277 -1.43102,2.853937 0,0 z m -2.34848,9.73214 c 6.50721,-4.763579 4.6057,3.908802 0,0 z m 3.04408,0.12842 c 2.95973,0.326641 -1.56057,-2.078292 0,0 z m 0.11727,-3.82442 c 6.34768,0.546477 -1.69002,2.600929 -0.001,-5e-5 z m 4.04842,2.11237 c 1.35893,1.304735 -1.90982,0.03571 0,0 z m 2.13541,1.10061 c 0.82445,1.502402 -1.65981,0.529902 0,0 z m -5.1279,41.75232 c 1.02905,0.655643 -1.54276,-0.312298 0,0 z m 8.46935,-17.78683 c 2.38074,0.72021 -1.49717,0.684252 0,0 z m -1.4428,4.88107 c 3.51593,0.728248 -2.11729,2.648285 0,0 z m 1.82886,-0.36365 c 0.88464,1.021004 -1.88807,-0.09875 0,0 z m 1.29301,4.09397 c 1.14808,1.974787 -1.5707,-0.0224 0,0 z"
       id="path16564" />
  </g>
</svg>
