<?xml version="1.0" encoding="UTF-8" standalone="no"?>
<!-- Created with Inkscape (http://www.inkscape.org/) -->

<svg
   width="95mm"
   height="87mm"
   viewBox="0 0 95 87"
   version="1.1"
   id="svg851"
   inkscape:version="1.1.2 (0a00cf5339, 2022-02-04)"
   sodipodi:docname="rules.svg"
   xmlns:inkscape="http://www.inkscape.org/namespaces/inkscape"
   xmlns:sodipodi="http://sodipodi.sourceforge.net/DTD/sodipodi-0.dtd"
   xmlns="http://www.w3.org/2000/svg"
   xmlns:svg="http://www.w3.org/2000/svg">
  <sodipodi:namedview
     id="namedview853"
     pagecolor="#ffffff"
     bordercolor="#111111"
     borderopacity="1"
     inkscape:pageshadow="0"
     inkscape:pageopacity="0"
     inkscape:pagecheckerboard="1"
     inkscape:document-units="mm"
     showgrid="false"
     inkscape:zoom="1.3719136"
     inkscape:cx="333.47582"
     inkscape:cy="238.71766"
     inkscape:window-width="1920"
     inkscape:window-height="948"
     inkscape:window-x="0"
     inkscape:window-y="1107"
     inkscape:window-maximized="1"
     inkscape:current-layer="layer1" />
  <defs
     id="defs848" />
  <g
     inkscape:label="Layer 1"
     inkscape:groupmode="layer"
     id="layer1">
    <path
       style="fill:#929ab9;fill-opacity:1;stroke-width:0.264583"
       d="m 13.460763,84.731593 c -2.97827,-0.61053 -5.2745291,-1.93469 -7.3694695,-4.24967 -2.71826,-3.00377 -3.61073,-6.00483 -3.61073,-12.14149 0,-4.026654 0.25762,-5.153384 1.35383,-5.921204 0.51866,-0.36329 1.43599,-0.43146 5.8057998,-0.43146 h 5.1897997 l 0.17528,-10.36208 c 0.0964,-5.699143 0.17735,-16.920784 0.17988,-24.936979 0.005,-15.526068 0.0924,-16.8021758 1.31743,-19.2033558 0.79853,-1.565257 2.40336,-3.224776 3.91314,-4.046502 2.86786,-1.560882 1.784,-1.511496 33.17198,-1.511496 20.29469,0 29.18404,0.08765 30.17306,0.297492 2.8661,0.608124 5.36277,2.360949 7.0016,4.915581 1.44247,2.24855 1.66819,3.8069548 1.67262,11.5479828 0.003,5.849884 -0.0601,6.974059 -0.43856,7.771614 -0.7329,1.544465 -1.34148,1.66108 -8.6688,1.66108 h -6.48243 l -0.0748,22.952604 c -0.0748,22.935093 -0.0753,22.953913 -0.66321,24.672393 -1.53892,4.49817 -5.49712,8.02284 -10.07347,8.97017 -1.66834,0.34536 -50.89294,0.3597 -52.57292,0.0153 z m 38.14104,-6.80268 c -1.24171,-2.47971 -1.70638,-4.90278 -1.75048,-9.12812 l -0.0104,-0.99218 H 29.037143 8.2333639 l 0.1178,2.85902 c 0.13779,3.34433 0.6060397,4.57821 2.4088291,6.34752 2.28403,2.24161 1.26272,2.14414 22.61508,2.15816 l 18.85601,0.0124 -0.62933,-1.25677 z m 15.07178,0.51301 c 1.44871,-0.74104 2.98683,-2.31855 3.64241,-3.73567 0.55716,-1.20436 0.55987,-1.33381 0.69165,-32.959105 0.12292,-29.502734 0.16506,-31.8225138 0.59531,-32.7744998 0.25466,-0.563474 0.46302,-1.06949 0.46302,-1.124479 0,-0.05499 -10.63087,-0.09998 -23.62415,-0.09998 h -23.62414 l -1.17841,0.595312 c -1.49598,0.755746 -2.30035,1.9628468 -2.47725,3.7175178 -0.0763,0.756641 -0.20522,12.299696 -0.28654,25.651232 l -0.14785,24.275518 h 16.65858 16.65858 l 0.74236,0.6378 0.74236,0.63779 0.14525,4.984604 c 0.13009,4.46411 0.20981,5.13045 0.76354,6.38144 0.73121,1.65199 2.70088,3.53634 4.32324,4.13599 1.49615,0.55301 4.52225,0.38744 5.91204,-0.32347 z M 28.099103,56.243109 c -1.67073,-1.03649 -1.70163,-3.445448 -0.0598,-4.658922 0.61363,-0.453525 1.61898,-0.482322 17.18183,-0.492138 18.42488,-0.01162 17.48039,-0.105183 18.28097,1.810869 0.48192,1.153379 0.12623,2.465471 -0.88371,3.259881 -0.66357,0.52197 -1.03028,0.53316 -17.24491,0.52627 -14.96301,-0.006 -16.63542,-0.0495 -17.27442,-0.44596 z m 0.1034,-11.072438 c -0.70032,-0.490522 -1.38028,-1.720845 -1.38028,-2.497481 0,-0.953821 0.73227,-2.027201 1.69448,-2.483798 0.83456,-0.396025 2.49927,-0.431503 17.19232,-0.366405 l 16.26829,0.07208 0.78233,0.749641 c 0.96039,0.92026 1.21668,2.040982 0.732,3.200982 -0.7648,1.830424 0.20121,1.737918 -18.14859,1.737918 -14.5699,0 -16.62157,-0.04943 -17.14055,-0.412935 z m 0.1444,-11.113741 c -0.79451,-0.431099 -1.52468,-1.626542 -1.52468,-2.49624 0,-0.896377 0.74272,-2.076689 1.57884,-2.509063 1.10587,-0.571867 32.34376,-0.606187 33.70594,-0.03703 0.812,0.339275 1.75689,1.708613 1.75689,2.546094 0,0.727987 -0.91757,2.167104 -1.61004,2.525196 -1.12475,0.581628 -32.83155,0.554551 -33.90695,-0.02896 z m -0.0906,-11.191084 c -1.67382,-1.033235 -1.84913,-3.386274 -0.34649,-4.650665 l 0.80505,-0.677408 h 8.07482 c 7.05879,0 8.16866,0.05544 8.82069,0.440603 1.52653,0.901743 1.78845,2.995455 0.54841,4.383868 l -0.77172,0.864071 -8.15796,0.07126 c -7.62531,0.06661 -8.21116,0.03842 -8.9728,-0.431729 z m 58.3559,-5.791094 c -0.005,-4.51375 -0.0723,-5.369677 -0.49426,-6.283854 -0.59115,-1.2808418 -1.42876,-2.0869268 -2.73619,-2.6332048 -1.72672,-0.721471 -3.5823,-0.368946 -4.95301,0.940975 -1.47159,1.4063298 -1.60031,2.0418728 -1.60031,7.9014398 v 5.300165 h 4.89479 4.89479 l -0.006,-5.225521 z"
       id="path1232" />
  </g>
</svg>
