<?xml version="1.0" encoding="UTF-8" standalone="no"?>
<!-- Created with Inkscape (http://www.inkscape.org/) -->

<svg
   width="123mm"
   height="114mm"
   viewBox="0 0 123 114"
   version="1.1"
   id="svg5"
   inkscape:version="1.1.2 (0a00cf5339, 2022-02-04)"
   sodipodi:docname="share_icon.svg"
   xmlns:inkscape="http://www.inkscape.org/namespaces/inkscape"
   xmlns:sodipodi="http://sodipodi.sourceforge.net/DTD/sodipodi-0.dtd"
   xmlns="http://www.w3.org/2000/svg"
   xmlns:svg="http://www.w3.org/2000/svg">
  <sodipodi:namedview
     id="namedview7"
     pagecolor="#ffffff"
     bordercolor="#111111"
     borderopacity="1"
     inkscape:pageshadow="0"
     inkscape:pageopacity="0"
     inkscape:pagecheckerboard="1"
     inkscape:document-units="mm"
     showgrid="false"
     inkscape:zoom="0.68595679"
     inkscape:cx="341.85827"
     inkscape:cy="257.30484"
     inkscape:window-width="1920"
     inkscape:window-height="948"
     inkscape:window-x="0"
     inkscape:window-y="1107"
     inkscape:window-maximized="1"
     inkscape:current-layer="layer1" />
  <defs
     id="defs2" />
  <g
     inkscape:label="Layer 1"
     inkscape:groupmode="layer"
     id="layer1">
    <path
       style="fill:#929ab9;stroke-width:0.264583;fill-opacity:1"
       d="m 79.177818,111.46241 c -4.02659,-0.83859 -6.35809,-2.07554 -9.14107,-4.84971 -2.55203,-2.54395 -3.62095,-4.33556 -4.50137,-7.544734 -0.48969,-1.784935 -0.55299,-2.530425 -0.42611,-5.017795 0.082,-1.60676 0.22406,-3.22336 0.31579,-3.59244 0.15734,-0.63306 -0.11514,-0.84171 -4.81419,-3.686494 -2.73953,-1.658498 -8.47104,-5.137134 -12.73669,-7.7303 l -7.75572,-4.714848 -1.69629,1.721522 c -4.0867,4.147505 -9.0307,6.211787 -14.88691,6.215769 -3.58846,0.0024 -5.93383,-0.544354 -9.30614,-2.16962 -2.47254,-1.19162 -3.04498,-1.610479 -5.3048602,-3.881623 -2.06108,-2.071346 -2.76442,-2.996348 -3.77355,-4.962811 -4.93820002,-9.622893 -1.85047,-21.200938 7.2169902,-27.061522 6.21893,-4.01949 14.6369,-4.264541 21.251,-0.618628 2.04071,1.12491 4.62616,3.300783 6.13145,5.160121 0.5596,0.691224 1.12438,1.256771 1.25506,1.256771 0.13068,0 9.56831,-4.630118 20.97251,-10.289151 l 20.73491,-10.289151 -0.53191,-1.683245 c -1.1231,-3.554058 -0.91822,-8.573367 0.49528,-12.134286 2.23182,-5.6224087 6.5472,-9.556345 12.51843,-11.41192 2.56477,-0.797004 7.403052,-0.862539 10.044852,-0.136058 5.40572,1.48655 9.98441,5.3457486 12.34117,10.401898 1.21348,2.603355 1.67323,4.772677 1.67783,7.916777 0.008,5.255192 -1.76008,9.569107 -5.41137,13.205344 -3.58977,3.574976 -7.45484,5.335262 -12.3286,5.614882 -5.523262,0.316878 -10.521292,-1.533962 -14.469772,-5.358363 -1.45634,-1.410578 -1.53671,-1.45029 -2.30855,-1.140719 -0.43982,0.176403 -6.15748,2.993869 -12.70592,6.261031 -6.54844,3.267162 -15.64892,7.771612 -20.22329,10.009886 -4.57438,2.238275 -8.35751,4.110053 -8.40697,4.159512 -0.0495,0.04946 0.0794,0.739868 0.28627,1.534242 0.91118,3.498231 0.76233,7.92697 -0.37778,11.24077 -0.28631,0.832194 -0.42995,1.590712 -0.31919,1.685594 0.11075,0.09488 3.41606,2.114257 7.34513,4.487498 3.92906,2.373241 9.3934,5.676752 12.14297,7.341134 2.74957,1.664383 5.14248,3.081123 5.31758,3.148314 0.17509,0.06719 1.14012,-0.696584 2.14452,-1.697273 6.01936,-5.997138 14.89722,-6.65362 22.05738,-1.631053 2.70675,1.898679 4.75722,4.743945 5.99557,8.31955 0.63302,1.82778 0.73406,2.53193 0.74038,5.15937 0.006,2.48174 -0.10539,3.38417 -0.60398,4.894792 -0.99138,3.003677 -2.13053,4.876587 -4.26783,7.016867 -3.30408,3.30868 -7.51037,5.05562 -12.01736,4.99099 -1.17726,-0.0169 -2.37861,-0.0803 -2.66965,-0.14089 z m 5.88536,-8.69997 c 4.55403,-1.89413 6.66792,-7.064299 4.69018,-11.471289 -0.86679,-1.93146 -2.44463,-3.49838 -4.43952,-4.408792 -1.34812,-0.615246 -1.80311,-0.689686 -3.70417,-0.606044 -3.55639,0.156475 -6.08227,1.810586 -7.55208,4.945606 -0.58503,1.24784 -0.69674,1.84354 -0.67719,3.61102 0.0267,2.41509 0.57095,3.9327 1.98983,5.548709 2.3689,2.69804 6.49408,3.71126 9.69295,2.38079 z M 26.363868,73.78255 c 2.896,-0.667636 6.01247,-2.897132 7.6564,-5.47733 1.44742,-2.271757 1.97222,-4.343098 1.8362,-7.247292 -0.10557,-2.253824 -0.23274,-2.792352 -1.08147,-4.579535 -2.41682,-5.089131 -7.82771,-7.98784 -13.19311,-7.067778 -10.06961,1.726745 -14.0171602,13.803662 -6.85352,20.967295 3.03876,3.038758 7.52652,4.351912 11.6355,3.40464 z M 104.18094,32.285528 c 4.02619,-1.519883 6.86601,-5.644412 6.87603,-9.986694 0.007,-2.823282 -1.61466,-6.2461 -3.83332,-8.093379 -6.28856,-5.2359224 -15.927242,-1.623771 -17.341752,6.498919 -0.56198,3.227125 0.36863,6.221862 2.73956,8.816036 1.34558,1.472276 3.5235,2.785848 5.40902,3.262346 1.47091,0.371719 4.496572,0.127112 6.150462,-0.497228 z"
       id="path14068" />
  </g>
</svg>
