<?xml version="1.0" encoding="UTF-8" standalone="no"?>
<!-- Created with Inkscape (http://www.inkscape.org/) -->

<svg
   width="183mm"
   height="135mm"
   viewBox="0 0 183 135"
   version="1.1"
   id="svg1016"
   xmlns="http://www.w3.org/2000/svg"
   xmlns:svg="http://www.w3.org/2000/svg">
  <defs
     id="defs1013" />
  <g
     id="layer1">
    <path
       style="fill:none;stroke:#929ab9;stroke-width:4.049;stroke-miterlimit:4;stroke-dasharray:none;stroke-opacity:1"
       id="path1099"
       d="M 107.47943,79.89061 A 10.13246,10.13246 0 0 1 97.348517,90.023069 10.13246,10.13246 0 0 1 87.21451,79.893705 10.13246,10.13246 0 0 1 97.342327,69.758151 10.13246,10.13246 0 0 1 107.47943,79.88442" />
    <path
       style="fill:none;stroke:#929ab9;stroke-width:2.349;stroke-miterlimit:4;stroke-dasharray:none;stroke-opacity:1"
       id="path1217"
       d="m 51.904198,46.884392 a 8.1990891,8.1990891 0 0 1 -8.197837,8.199089 8.1990891,8.1990891 0 0 1 -8.200341,-8.196585 8.1990891,8.1990891 0 0 1 8.195332,-8.201592 8.1990891,8.1990891 0 0 1 8.202844,8.194079" />
    <path
       style="fill:none;stroke:#929ab9;stroke-width:4.449;stroke-miterlimit:4;stroke-dasharray:none;stroke-opacity:1"
       id="path1219"
       d="m 56.904782,107.56343 a 8.7310534,8.7310534 0 0 1 -8.72972,8.73105 8.7310534,8.7310534 0 0 1 -8.732386,-8.72838 8.7310534,8.7310534 0 0 1 8.727053,-8.733722 8.7310534,8.7310534 0 0 1 8.735052,8.725722" />
    <path
       style="fill:none;stroke:#929ab9;stroke-width:3.649;stroke-miterlimit:4;stroke-dasharray:none;stroke-opacity:1"
       id="path1221"
       d="m 112.70249,118.83403 a 7.7865944,7.7865944 0 0 1 -7.78541,7.78659 7.7865944,7.7865944 0 0 1 -7.78778,-7.78421 7.7865944,7.7865944 0 0 1 7.78303,-7.78897 7.7865944,7.7865944 0 0 1 7.79016,7.78183" />
    <path
       style="fill:none;stroke:#929ab9;stroke-width:4.049;stroke-miterlimit:4;stroke-dasharray:none;stroke-opacity:1"
       id="path1223"
       d="m 125.28625,37.483208 a 8.2688789,8.2688789 0 0 1 -8.26761,8.268879 8.2688789,8.2688789 0 0 1 -8.27015,-8.266354 8.2688789,8.2688789 0 0 1 8.26509,-8.271403 8.2688789,8.2688789 0 0 1 8.27267,8.263826" />
    <path
       style="fill:none;stroke:#929ab9;stroke-width:3.849;stroke-miterlimit:4;stroke-dasharray:none;stroke-opacity:1"
       id="path1225"
       d="m 163.85685,72.431282 a 12.014241,12.014241 0 0 1 -12.01241,12.014241 12.014241,12.014241 0 0 1 -12.01608,-12.010571 12.014241,12.014241 0 0 1 12.00874,-12.01791 12.014241,12.014241 0 0 1 12.01974,12.0069" />
    <path
       style="fill:none;stroke:#929ab9;stroke-width:2.449;stroke-miterlimit:4;stroke-dasharray:none;stroke-opacity:1"
       id="path1227"
       d="m 85.985182,45.742008 a 4.1383419,4.1383419 0 0 1 -4.13771,4.138342 4.1383419,4.1383419 0 0 1 -4.138974,-4.137078 4.1383419,4.1383419 0 0 1 4.136446,-4.139605 4.1383419,4.1383419 0 0 1 4.140237,4.135813" />
    <path
       style="fill:none;stroke:#929ab9;stroke-width:2.149;stroke-miterlimit:4;stroke-dasharray:none;stroke-opacity:1"
       id="path1229"
       d="m 75.484581,18.416939 a 6.6471639,6.6471639 0 0 1 -6.646148,6.647164 6.6471639,6.6471639 0 0 1 -6.648179,-6.645134 6.6471639,6.6471639 0 0 1 6.644118,-6.649193 6.6471639,6.6471639 0 0 1 6.650208,6.643102" />
    <path
       style="fill:#929ab9;fill-opacity:1;stroke-width:0.0127535"
       d="m 168.53398,65.953299 c -0.0847,-0.02007 -0.40987,-0.141186 -0.75744,-0.282163 -0.18939,-0.07682 -0.53947,-0.217457 -0.77797,-0.312527 -0.48982,-0.195264 -0.74714,-0.313873 -0.90163,-0.415596 -0.35655,-0.234788 -0.56215,-0.533225 -0.65684,-0.953416 -0.0196,-0.08678 -0.0222,-0.304238 -0.0286,-2.435567 l -0.007,-2.340278 -0.0275,-0.04646 c -0.0151,-0.02555 -0.28789,-0.335464 -0.60619,-0.688693 -1.69444,-1.880348 -3.59031,-4.013827 -3.6286,-4.083384 -0.0424,-0.07689 -0.0266,-0.227454 0.0417,-0.399395 0.12158,-0.305887 0.38564,-0.513206 0.71965,-0.565033 0.0719,-0.01116 1.43614,-0.01388 5.49678,-0.011 5.10673,0.0037 5.40531,0.005 5.47766,0.02624 0.22315,0.06531 0.41317,0.20053 0.5404,0.384574 0.0896,0.129678 0.12172,0.204145 0.16192,0.376006 0.0313,0.13375 0.0325,0.148469 0.015,0.185216 -0.0188,0.03952 -0.42981,0.503556 -1.41849,1.601653 -0.28104,0.312144 -0.75455,0.840141 -1.05224,1.173329 -0.29769,0.333186 -0.69667,0.777967 -0.88662,0.988401 -0.61217,0.678172 -0.91134,1.014101 -0.93415,1.04891 -0.021,0.03206 -0.0227,0.209825 -0.0292,3.101811 -0.006,2.892121 -0.008,3.073275 -0.0297,3.163449 -0.062,0.258988 -0.20636,0.419169 -0.43217,0.479282 -0.0733,0.01952 -0.20654,0.02173 -0.27872,0.0047 z m 0.0411,-7.466501 c 0.28467,-0.269773 0.47201,-0.473233 2.09021,-2.270135 0.48009,-0.533099 1.00805,-1.118487 1.17325,-1.300863 0.32551,-0.359361 0.47187,-0.525477 0.47187,-0.535586 0,-0.0035 -2.23251,-0.0064 -4.96114,-0.0064 -2.98865,0 -4.96113,0.0046 -4.96113,0.01166 0,0.0064 0.16802,0.197238 0.37338,0.424056 0.20537,0.226818 0.7032,0.779699 1.10632,1.228624 1.47179,1.639078 1.82178,2.017981 2.22424,2.407984 l 0.30018,0.290893 0.004,2.495762 c 0.004,2.34786 0.005,2.500239 0.0262,2.571328 0.0526,0.175486 0.15818,0.302751 0.31632,0.38125 0.0519,0.02579 0.39864,0.167544 0.77041,0.315005 0.37176,0.147459 0.68741,0.273045 0.70144,0.279078 0.014,0.006 0.0398,0.01654 0.0574,0.02335 l 0.0319,0.01238 0.004,-3.036639 0.003,-3.03664 z"
       id="path971" />
    <path
       style="fill:#929ab9;fill-opacity:1;stroke-width:0.0127535"
       d="m 130.68944,32.051707 c -0.0847,-0.02007 -0.40987,-0.141186 -0.75744,-0.282163 -0.18939,-0.07682 -0.53947,-0.217457 -0.77797,-0.312527 -0.48982,-0.195264 -0.74714,-0.313873 -0.90163,-0.415596 -0.35655,-0.234788 -0.56215,-0.533225 -0.65684,-0.953416 -0.0196,-0.08678 -0.0222,-0.304238 -0.0286,-2.435567 l -0.007,-2.340278 -0.0275,-0.04646 c -0.0151,-0.02555 -0.28789,-0.335464 -0.60619,-0.688693 -1.69444,-1.880348 -3.59031,-4.013827 -3.6286,-4.083384 -0.0424,-0.07689 -0.0266,-0.227454 0.0417,-0.399395 0.12158,-0.305887 0.38564,-0.513206 0.71965,-0.565033 0.0719,-0.01116 1.43614,-0.01388 5.49678,-0.011 5.10673,0.0037 5.40531,0.005 5.47766,0.02624 0.22315,0.06531 0.41317,0.20053 0.5404,0.384574 0.0896,0.129678 0.12172,0.204145 0.16192,0.376006 0.0313,0.13375 0.0325,0.148469 0.015,0.185216 -0.0188,0.03952 -0.42981,0.503556 -1.41849,1.601653 -0.28104,0.312144 -0.75455,0.840141 -1.05224,1.173329 -0.29769,0.333186 -0.69667,0.777967 -0.88662,0.988401 -0.61217,0.678172 -0.91134,1.014101 -0.93415,1.04891 -0.021,0.03206 -0.0227,0.209825 -0.0292,3.101811 -0.006,2.892121 -0.008,3.073275 -0.0297,3.163449 -0.062,0.258988 -0.20636,0.419169 -0.43217,0.479282 -0.0733,0.01952 -0.20654,0.02173 -0.27872,0.0047 z m 0.0411,-7.466501 c 0.28467,-0.269773 0.47201,-0.473233 2.09021,-2.270135 0.48009,-0.533099 1.00805,-1.118487 1.17325,-1.300863 0.32551,-0.359361 0.47187,-0.525477 0.47187,-0.535586 0,-0.0035 -2.23251,-0.0064 -4.96114,-0.0064 -2.98865,0 -4.96113,0.0046 -4.96113,0.01166 0,0.0064 0.16802,0.197238 0.37338,0.424056 0.20537,0.226818 0.7032,0.779699 1.10632,1.228624 1.47179,1.639078 1.82178,2.017981 2.22424,2.407984 l 0.30018,0.290893 0.004,2.495762 c 0.004,2.34786 0.005,2.500239 0.0262,2.571328 0.0526,0.175486 0.15818,0.302751 0.31632,0.38125 0.0519,0.02579 0.39864,0.167544 0.77041,0.315005 0.37176,0.147459 0.68741,0.273045 0.70144,0.279078 0.014,0.006 0.0398,0.01654 0.0574,0.02335 l 0.0319,0.01238 0.004,-3.036639 0.003,-3.03664 z"
       id="path1274" />
    <path
       style="fill:#929ab9;fill-opacity:1;stroke-width:0.0127535"
       d="m 81.90215,16.890171 c -0.0847,-0.02007 -0.40987,-0.141186 -0.75744,-0.282163 -0.18939,-0.07682 -0.53947,-0.217457 -0.77797,-0.312527 -0.48982,-0.195264 -0.74714,-0.313873 -0.90163,-0.415596 -0.35655,-0.234788 -0.56215,-0.533225 -0.65684,-0.953416 -0.0196,-0.08678 -0.0222,-0.304238 -0.0286,-2.435567 l -0.007,-2.340278 -0.0275,-0.04646 c -0.0151,-0.02555 -0.28789,-0.3354638 -0.60619,-0.6886928 -1.69444,-1.880348 -3.59031,-4.013827 -3.6286,-4.083384 -0.0424,-0.07689 -0.0266,-0.227454 0.0417,-0.399395 0.12158,-0.305887 0.38564,-0.513206 0.71965,-0.565033 0.0719,-0.01116 1.43614,-0.01388 5.49678,-0.011 5.10673,0.0037 5.40531,0.005 5.47766,0.02624 0.22315,0.06531 0.41317,0.20053 0.5404,0.384574 0.0896,0.129678 0.12172,0.204145 0.16192,0.376006 0.0313,0.13375 0.0325,0.148469 0.015,0.185216 -0.0188,0.03952 -0.42981,0.503556 -1.41849,1.601653 -0.28104,0.312144 -0.75455,0.840141 -1.05224,1.173329 -0.29769,0.333186 -0.69667,0.777967 -0.88662,0.988401 -0.61217,0.678172 -0.91134,1.0141008 -0.93415,1.0489098 -0.021,0.03206 -0.0227,0.209825 -0.0292,3.101811 -0.006,2.892121 -0.008,3.073275 -0.0297,3.163449 -0.062,0.258988 -0.20636,0.419169 -0.43217,0.479282 -0.0733,0.01952 -0.20654,0.02173 -0.27872,0.0047 z m 0.0411,-7.4665008 c 0.28467,-0.269773 0.47201,-0.473233 2.09021,-2.270135 0.48009,-0.533099 1.00805,-1.118487 1.17325,-1.300863 0.32551,-0.359361 0.47187,-0.525477 0.47187,-0.535586 0,-0.0035 -2.23251,-0.0064 -4.96114,-0.0064 -2.98865,0 -4.96113,0.0046 -4.96113,0.01166 0,0.0064 0.16802,0.197238 0.37338,0.424056 0.20537,0.226818 0.7032,0.779699 1.10632,1.228624 1.47179,1.639078 1.82178,2.017981 2.22424,2.407984 l 0.30018,0.290893 0.004,2.4957618 c 0.004,2.34786 0.005,2.500239 0.0262,2.571328 0.0526,0.175486 0.15818,0.302751 0.31632,0.38125 0.0519,0.02579 0.39864,0.167544 0.77041,0.315005 0.37176,0.147459 0.68741,0.273045 0.70144,0.279078 0.014,0.006 0.0398,0.01654 0.0574,0.02335 l 0.0319,0.01238 0.004,-3.036639 0.003,-3.0366398 z"
       id="path1276" />
    <path
       style="fill:#929ab9;fill-opacity:1;stroke-width:0.0127535"
       d="m 92.133985,44.653167 c -0.0847,-0.02007 -0.40987,-0.141186 -0.75744,-0.282163 -0.18939,-0.07682 -0.53947,-0.217457 -0.77797,-0.312527 -0.48982,-0.195264 -0.74714,-0.313873 -0.90163,-0.415596 -0.35655,-0.234788 -0.56215,-0.533225 -0.65684,-0.953416 -0.0196,-0.08678 -0.0222,-0.304238 -0.0286,-2.435567 l -0.007,-2.340278 -0.0275,-0.04646 c -0.0151,-0.02555 -0.28789,-0.335464 -0.60619,-0.688693 -1.69444,-1.880348 -3.59031,-4.013827 -3.6286,-4.083384 -0.0424,-0.07689 -0.0266,-0.227454 0.0417,-0.399395 0.12158,-0.305887 0.38564,-0.513206 0.71965,-0.565033 0.0719,-0.01116 1.43614,-0.01388 5.49678,-0.011 5.106719,0.0037 5.405296,0.005 5.477646,0.02624 0.22315,0.06531 0.413167,0.20053 0.540397,0.384574 0.0896,0.129678 0.12172,0.204145 0.16192,0.376006 0.0313,0.13375 0.0325,0.148469 0.015,0.185216 -0.0188,0.03952 -0.429807,0.503556 -1.418484,1.601653 -0.281037,0.312144 -0.754544,0.840141 -1.052234,1.173329 -0.297687,0.333186 -0.696664,0.777967 -0.886614,0.988401 -0.612167,0.678172 -0.911341,1.014101 -0.934151,1.04891 -0.021,0.03206 -0.0227,0.209825 -0.0292,3.101811 -0.006,2.892121 -0.008,3.073275 -0.0297,3.163449 -0.062,0.258988 -0.20636,0.419169 -0.43217,0.479282 -0.0733,0.01952 -0.20654,0.02173 -0.27872,0.0047 z m 0.0411,-7.466501 c 0.28467,-0.269773 0.47201,-0.473233 2.090208,-2.270135 0.480087,-0.533099 1.008044,-1.118487 1.173244,-1.300863 0.32551,-0.359361 0.471867,-0.525477 0.471867,-0.535586 0,-0.0035 -2.232498,-0.0064 -4.961129,-0.0064 -2.98865,0 -4.96113,0.0046 -4.96113,0.01166 0,0.0064 0.16802,0.197238 0.37338,0.424056 0.20537,0.226818 0.7032,0.779699 1.10632,1.228624 1.47179,1.639078 1.82178,2.017981 2.22424,2.407984 l 0.30018,0.290893 0.004,2.495762 c 0.004,2.34786 0.005,2.500239 0.0262,2.571328 0.0526,0.175486 0.15818,0.302751 0.31632,0.38125 0.0519,0.02579 0.39864,0.167544 0.77041,0.315005 0.37176,0.147459 0.68741,0.273045 0.70144,0.279078 0.014,0.006 0.0398,0.01654 0.0574,0.02335 l 0.0319,0.01238 0.004,-3.036639 0.003,-3.03664 z"
       id="path1278" />
    <path
       style="fill:#929ab9;fill-opacity:1;stroke-width:0.0127535"
       d="m 124.80234,126.64266 c -0.0847,-0.0201 -0.40987,-0.14119 -0.75744,-0.28216 -0.18939,-0.0768 -0.53947,-0.21746 -0.77797,-0.31253 -0.48982,-0.19527 -0.74714,-0.31387 -0.90163,-0.4156 -0.35655,-0.23479 -0.56215,-0.53322 -0.65684,-0.95341 -0.0196,-0.0868 -0.0222,-0.30424 -0.0286,-2.43557 l -0.007,-2.34028 -0.0275,-0.0465 c -0.0151,-0.0256 -0.28789,-0.33546 -0.60619,-0.68869 -1.69444,-1.88035 -3.59031,-4.01383 -3.6286,-4.08339 -0.0424,-0.0769 -0.0266,-0.22745 0.0417,-0.39939 0.12158,-0.30589 0.38564,-0.51321 0.71965,-0.56503 0.0719,-0.0112 1.43614,-0.0139 5.49678,-0.011 5.10674,0.004 5.40532,0.005 5.47767,0.0262 0.22315,0.0653 0.41317,0.20053 0.5404,0.38457 0.0896,0.12968 0.12172,0.20415 0.16192,0.37601 0.0313,0.13375 0.0325,0.14847 0.015,0.18521 -0.0188,0.0395 -0.42981,0.50356 -1.41849,1.60166 -0.28104,0.31214 -0.75455,0.84014 -1.05225,1.17332 -0.29769,0.33319 -0.69667,0.77797 -0.88662,0.98841 -0.61217,0.67817 -0.91134,1.0141 -0.93415,1.04891 -0.021,0.0321 -0.0227,0.20982 -0.0292,3.10181 -0.006,2.89212 -0.008,3.07327 -0.0297,3.16345 -0.062,0.25898 -0.20636,0.41916 -0.43217,0.47928 -0.0733,0.0195 -0.20654,0.0217 -0.27872,0.005 z m 0.0411,-7.4665 c 0.28467,-0.26978 0.47201,-0.47324 2.09021,-2.27014 0.48009,-0.5331 1.00806,-1.11848 1.17326,-1.30086 0.32551,-0.35936 0.47187,-0.52548 0.47187,-0.53559 0,-0.004 -2.23252,-0.006 -4.96115,-0.006 -2.98865,0 -4.96113,0.005 -4.96113,0.0117 0,0.006 0.16802,0.19724 0.37338,0.42406 0.20537,0.22682 0.7032,0.7797 1.10632,1.22862 1.47179,1.63908 1.82178,2.01798 2.22424,2.40799 l 0.30018,0.29089 0.004,2.49576 c 0.004,2.34786 0.005,2.50024 0.0262,2.57133 0.0526,0.17549 0.15818,0.30275 0.31632,0.38125 0.0519,0.0258 0.39864,0.16754 0.77041,0.31501 0.37176,0.14745 0.68741,0.27304 0.70144,0.27907 0.014,0.006 0.0398,0.0165 0.0574,0.0233 l 0.0319,0.0124 0.004,-3.03664 0.003,-3.03664 z"
       id="path1280" />
    <path
       style="fill:#929ab9;fill-opacity:1;stroke-width:0.0127535"
       d="m 114.98781,80.660322 c -0.0847,-0.0201 -0.40987,-0.14118 -0.75744,-0.28216 -0.18939,-0.0768 -0.53947,-0.21746 -0.77797,-0.31253 -0.48982,-0.19526 -0.74714,-0.31387 -0.90163,-0.41559 -0.35655,-0.23479 -0.56215,-0.53323 -0.65684,-0.95342 -0.0196,-0.0868 -0.0222,-0.30424 -0.0286,-2.43556 l -0.007,-2.34028 -0.0275,-0.0465 c -0.0151,-0.0255 -0.28789,-0.33547 -0.60619,-0.688695 -1.69444,-1.880348 -3.59031,-4.013827 -3.6286,-4.083384 -0.0424,-0.07689 -0.0266,-0.227454 0.0417,-0.399395 0.12158,-0.305887 0.38564,-0.513206 0.71965,-0.565033 0.0719,-0.01116 1.43614,-0.01388 5.49678,-0.011 5.10672,0.0037 5.4053,0.005 5.47765,0.02624 0.22315,0.06531 0.41317,0.20053 0.5404,0.384574 0.0896,0.129678 0.12172,0.204145 0.16192,0.376006 0.0313,0.13375 0.0325,0.148469 0.015,0.185216 -0.0188,0.03952 -0.42981,0.503556 -1.41849,1.601653 -0.28104,0.312144 -0.75454,0.840141 -1.05223,1.173329 -0.29769,0.333186 -0.69667,0.777967 -0.88662,0.988401 -0.61217,0.678168 -0.91134,1.014098 -0.93415,1.048908 -0.021,0.0321 -0.0227,0.20983 -0.0292,3.10181 -0.006,2.89212 -0.008,3.07328 -0.0297,3.16345 -0.062,0.25899 -0.20636,0.41917 -0.43217,0.47928 -0.0733,0.0195 -0.20654,0.0217 -0.27872,0.005 z m 0.0411,-7.466496 c 0.28467,-0.269773 0.47201,-0.473233 2.09021,-2.270135 0.48009,-0.533099 1.00804,-1.118487 1.17324,-1.300863 0.32551,-0.359361 0.47187,-0.525477 0.47187,-0.535586 0,-0.0035 -2.2325,-0.0064 -4.96113,-0.0064 -2.98865,0 -4.96113,0.0046 -4.96113,0.01166 0,0.0064 0.16802,0.197238 0.37338,0.424056 0.20537,0.226818 0.7032,0.779699 1.10632,1.228624 1.47179,1.639078 1.82178,2.017981 2.22424,2.407984 l 0.30018,0.290896 0.004,2.49576 c 0.004,2.34786 0.005,2.50024 0.0262,2.57133 0.0526,0.17548 0.15818,0.30275 0.31632,0.38125 0.0519,0.0258 0.39864,0.16754 0.77041,0.315 0.37176,0.14746 0.68741,0.27305 0.70144,0.27908 0.014,0.006 0.0398,0.0165 0.0574,0.0233 l 0.0319,0.0124 0.004,-3.03664 0.003,-3.03664 z"
       id="path1282" />
    <path
       style="fill:#929ab9;fill-opacity:1;stroke-width:0.0127535"
       d="m 68.575742,118.2506 c -0.0847,-0.0201 -0.40987,-0.14118 -0.75744,-0.28216 -0.18939,-0.0768 -0.53947,-0.21746 -0.77797,-0.31253 -0.48982,-0.19526 -0.74714,-0.31387 -0.90163,-0.41559 -0.35655,-0.23479 -0.56215,-0.53323 -0.65684,-0.95342 -0.0196,-0.0868 -0.0222,-0.30424 -0.0286,-2.43556 l -0.007,-2.34028 -0.0275,-0.0465 c -0.0151,-0.0255 -0.28789,-0.33547 -0.60619,-0.68869 -1.69444,-1.88035 -3.59031,-4.01383 -3.6286,-4.08339 -0.0424,-0.0769 -0.0266,-0.22745 0.0417,-0.39939 0.12158,-0.30589 0.38564,-0.51321 0.71965,-0.56503 0.0719,-0.0112 1.43614,-0.0139 5.49678,-0.011 5.106726,0.004 5.405306,0.005 5.477656,0.0262 0.22315,0.0653 0.41317,0.20053 0.5404,0.38457 0.0896,0.12968 0.12172,0.20414 0.16192,0.37601 0.0313,0.13375 0.0325,0.14846 0.015,0.18521 -0.0188,0.0395 -0.42981,0.50356 -1.41849,1.60165 -0.28104,0.31215 -0.754546,0.84015 -1.052236,1.17333 -0.29769,0.33319 -0.69667,0.77797 -0.88662,0.9884 -0.61217,0.67817 -0.91134,1.0141 -0.93415,1.04891 -0.021,0.0321 -0.0227,0.20983 -0.0292,3.10181 -0.006,2.89212 -0.008,3.07328 -0.0297,3.16345 -0.062,0.25899 -0.20636,0.41917 -0.43217,0.47928 -0.0733,0.0195 -0.20654,0.0217 -0.27872,0.005 z m 0.0411,-7.46649 c 0.28467,-0.26978 0.47201,-0.47324 2.09021,-2.27014 0.48009,-0.5331 1.008046,-1.11849 1.173246,-1.30086 0.32551,-0.35936 0.47187,-0.52548 0.47187,-0.53559 0,-0.003 -2.232506,-0.006 -4.961136,-0.006 -2.98865,0 -4.96113,0.005 -4.96113,0.0117 0,0.006 0.16802,0.19724 0.37338,0.42406 0.20537,0.22682 0.7032,0.7797 1.10632,1.22862 1.47179,1.63908 1.82178,2.01798 2.22424,2.40799 l 0.30018,0.29089 0.004,2.49576 c 0.004,2.34786 0.005,2.50024 0.0262,2.57133 0.0526,0.17548 0.15818,0.30275 0.31632,0.38125 0.0519,0.0258 0.39864,0.16754 0.77041,0.315 0.37176,0.14746 0.68741,0.27305 0.70144,0.27908 0.014,0.006 0.0398,0.0165 0.0574,0.0233 l 0.0319,0.0124 0.004,-3.03664 0.003,-3.03664 z"
       id="path1284" />
    <path
       style="fill:#929ab9;fill-opacity:1;stroke-width:0.0127535"
       d="m 56.746822,43.886093 c -0.0847,-0.0201 -0.40987,-0.14118 -0.75744,-0.28216 -0.18939,-0.0768 -0.53947,-0.21746 -0.77797,-0.31253 -0.48982,-0.19526 -0.74714,-0.31387 -0.90163,-0.41559 -0.35655,-0.23479 -0.56215,-0.53323 -0.65684,-0.95342 -0.0196,-0.0868 -0.0222,-0.30424 -0.0286,-2.43556 l -0.007,-2.34028 -0.0275,-0.0465 c -0.0151,-0.0255 -0.28789,-0.33547 -0.60619,-0.688695 -1.69444,-1.880348 -3.59031,-4.013827 -3.6286,-4.083384 -0.0424,-0.07689 -0.0266,-0.227454 0.0417,-0.399395 0.12158,-0.305887 0.38564,-0.513206 0.71965,-0.565033 0.0719,-0.01116 1.43614,-0.01388 5.49678,-0.011 5.106726,0.0037 5.405306,0.005 5.477656,0.02624 0.22315,0.06531 0.41317,0.20053 0.5404,0.384574 0.0896,0.129678 0.12172,0.204145 0.16192,0.376006 0.0313,0.13375 0.0325,0.148469 0.015,0.185216 -0.0188,0.03952 -0.42981,0.503556 -1.41849,1.601653 -0.28104,0.312144 -0.754546,0.840141 -1.052236,1.173329 -0.29769,0.333186 -0.69667,0.777967 -0.88662,0.988401 -0.61217,0.678168 -0.91134,1.014098 -0.93415,1.048908 -0.021,0.0321 -0.0227,0.20983 -0.0292,3.10181 -0.006,2.89212 -0.008,3.07328 -0.0297,3.16345 -0.062,0.25899 -0.20636,0.41917 -0.43217,0.47928 -0.0733,0.0195 -0.20654,0.0217 -0.27872,0.005 z m 0.0411,-7.466496 c 0.28467,-0.269773 0.47201,-0.473233 2.09021,-2.270135 0.48009,-0.533099 1.008046,-1.118487 1.173246,-1.300863 0.32551,-0.359361 0.47187,-0.525477 0.47187,-0.535586 0,-0.0035 -2.232506,-0.0064 -4.961136,-0.0064 -2.98865,0 -4.96113,0.0046 -4.96113,0.01166 0,0.0064 0.16802,0.197238 0.37338,0.424056 0.20537,0.226818 0.7032,0.779699 1.10632,1.228624 1.47179,1.639078 1.82178,2.017981 2.22424,2.407984 l 0.30018,0.290896 0.004,2.49576 c 0.004,2.34786 0.005,2.50024 0.0262,2.57133 0.0526,0.17548 0.15818,0.30275 0.31632,0.38125 0.0519,0.0258 0.39864,0.16754 0.77041,0.315 0.37176,0.14746 0.68741,0.27305 0.70144,0.27908 0.014,0.006 0.0398,0.0165 0.0574,0.0233 l 0.0319,0.0124 0.004,-3.03664 0.003,-3.03664 z"
       id="path1286" />
    <path
       style="fill:none;stroke:#929ab9;stroke-width:1.265;stroke-linecap:butt;stroke-linejoin:miter;stroke-miterlimit:4;stroke-dasharray:none;stroke-opacity:1"
       d="M 52.157042,47.724504 76.918139,46.392563"
       id="path1321" />
    <path
       style="fill:none;stroke:#929ab9;stroke-width:1.065;stroke-linecap:butt;stroke-linejoin:miter;stroke-miterlimit:4;stroke-dasharray:none;stroke-opacity:1"
       d="M 79.484782,50.092593 52.55287,99.714123"
       id="path1436" />
    <path
       style="fill:none;stroke:#929ab9;stroke-width:2.065;stroke-linecap:butt;stroke-linejoin:miter;stroke-miterlimit:4;stroke-dasharray:none;stroke-opacity:1"
       d="M 57.635568,104.12386 89.205508,86.642074"
       id="path1665" />
    <path
       style="fill:none;stroke:#929ab9;stroke-width:1.265;stroke-linecap:butt;stroke-linejoin:miter;stroke-miterlimit:4;stroke-dasharray:none;stroke-opacity:1"
       d="m 100.11204,90.804028 2.99644,19.061392"
       id="path1667" />
    <path
       style="fill:none;stroke:#929ab9;stroke-width:1.465;stroke-linecap:butt;stroke-linejoin:miter;stroke-miterlimit:4;stroke-dasharray:none;stroke-opacity:1"
       d="M 142.69297,80.889742 110.81502,114.39399"
       id="path1669" />
    <path
       style="fill:none;stroke:#929ab9;stroke-width:1.465;stroke-linecap:butt;stroke-linejoin:miter;stroke-miterlimit:4;stroke-dasharray:none;stroke-opacity:1"
       d="M 143.67177,63.189461 122.97855,43.378609"
       id="path1671" />
    <path
       style="fill:none;stroke:#929ab9;stroke-width:1.265;stroke-linecap:butt;stroke-linejoin:miter;stroke-miterlimit:4;stroke-dasharray:none;stroke-opacity:1"
       d="M 93.714076,70.412528 83.653622,49.554174"
       id="path1673" />
    <path
       style="fill:none;stroke:#929ab9;stroke-width:0.865;stroke-linecap:butt;stroke-linejoin:miter;stroke-miterlimit:4;stroke-dasharray:none;stroke-opacity:1"
       d="M 80.044281,41.765156 71.588259,24.407131"
       id="path1675" />
    <path
       style="fill:none;stroke:#929ab9;stroke-width:1.565;stroke-linecap:butt;stroke-linejoin:miter;stroke-miterlimit:4;stroke-dasharray:none;stroke-opacity:1"
       d="M 108.94018,33.128403 73.689135,21.449221"
       id="path1677" />
    <path
       style="fill:none;stroke:#929ab9;stroke-width:1.765;stroke-linecap:butt;stroke-linejoin:miter;stroke-miterlimit:4;stroke-dasharray:none;stroke-opacity:1"
       d="M 113.33657,45.007363 101.53398,70.541245"
       id="path1679" />
    <path
       style="fill:none;stroke:#929ab9;stroke-width:1.465;stroke-linecap:butt;stroke-linejoin:miter;stroke-miterlimit:4;stroke-dasharray:none;stroke-opacity:1"
       d="M 50.679765,52.098543 87.370422,75.893181"
       id="path1927" />
    <path
       style="fill:none;stroke:#929ab9;stroke-width:0.765;stroke-linecap:butt;stroke-linejoin:miter;stroke-miterlimit:4;stroke-dasharray:none;stroke-opacity:1"
       d="M 139.94196,68.965611 85.605633,47.177126"
       id="path1929" />
    <path
       style="fill:#929ab9;fill-opacity:1;stroke-width:0.0647911"
       d="m 158.31559,43.16893 c -0.0138,-0.03283 -0.0849,-0.03452 -0.15782,-0.0038 -0.25894,0.109206 -1.02201,0.137306 -1.43872,0.05299 -0.52798,-0.106836 -1.06491,-0.450373 -1.41463,-0.905108 -0.22759,-0.295933 -0.27331,-0.394315 -0.33074,-0.711923 -0.1314,-0.72647 0.19865,-1.6531 0.75722,-2.125957 0.44772,-0.37902 1.35797,-0.486171 1.87722,-0.220981 0.85431,0.436322 1.25073,1.29998 0.93449,2.035955 -0.14644,0.340828 -0.58378,0.833851 -0.83283,0.938883 -0.19367,0.08168 -0.15506,0.219391 0.08,0.285479 0.33428,0.09397 0.66659,0.03266 1.31581,-0.242776 1.55238,-0.658596 2.15421,-1.958866 1.55944,-3.369176 -0.30688,-0.72767 -1.49962,-2.470504 -2.08138,-3.041343 l -0.16015,-0.157143 -0.71586,0.366271 c -2.99686,1.533339 -6.46234,1.023257 -8.14545,-1.198914 -0.15544,-0.205167 -0.30648,-0.373516 -0.33573,-0.374074 -0.0826,-0.0016 -0.78925,-1.71807 -0.7194,-1.747525 0.0328,-0.01383 0.0326,-0.08934 -4.2e-4,-0.167749 -0.0331,-0.07841 -0.0912,-0.406391 -0.12906,-0.728878 -0.23185,-1.97187 0.14679,-3.702583 1.32273,-6.046081 0.54218,-1.080499 0.67908,-1.456234 0.59941,-1.645139 -0.032,-0.0758 -0.17769,-0.271292 -0.32381,-0.434422 -0.64662,-0.721885 -1.05727,-1.427835 -1.65874,-2.851594 -0.50188,-1.188131 -0.58175,-1.421893 -0.69281,-2.028291 -0.38058,-2.078487 -0.003,-3.763705 1.13905,-5.081267 0.57246,-0.660543 0.54907,-0.655816 1.0658,-0.215407 1.83832,1.566768 2.89018,3.464456 3.2435,5.85163 0.2513,1.697858 0.0917,3.914389 -0.42523,5.905341 -0.19587,0.754427 -0.33933,0.466099 1.384,2.781664 0.0889,0.119366 0.11081,0.116567 0.40167,-0.05129 1.08021,-0.62337 3.05092,-0.634062 4.17207,-0.02264 0.76215,0.415644 1.2519,0.971618 1.61506,1.833463 0.29627,0.703129 0.39321,1.251906 0.35258,1.995985 -0.057,1.044072 -0.44833,2.015105 -1.17781,2.922689 l -0.35103,0.436728 0.18223,0.200235 c 1.06473,1.17009 2.13942,2.910989 2.34044,3.791278 0.26002,1.138627 -0.17412,2.242232 -1.16469,2.960733 -0.17002,0.123333 -0.30039,0.244994 -0.28969,0.270362 0.0107,0.02537 -0.38352,0.216072 -0.87603,0.423781 -0.5572,0.234988 -0.90501,0.355094 -0.92067,0.317961 z m -0.35466,-8.004077 c 0.0545,-0.07831 -0.12733,-0.3642 -1.22505,-1.925805 -0.70896,-1.008604 -1.44817,-2.051492 -1.64269,-2.317529 -0.35348,-0.483466 -0.35373,-0.483663 -0.52534,-0.3906 -0.69593,0.377422 -1.1348,1.612746 -0.87517,2.463364 0.22657,0.742068 0.67443,1.100872 1.60759,1.287676 0.36248,0.07257 0.67401,0.167392 0.69228,0.210722 0.0217,0.05157 -0.0459,0.11216 -0.19604,0.175469 -0.35634,0.15028 -1.07012,0.07064 -1.71396,-0.191227 -1.46091,-0.594202 -2.14726,-1.877268 -1.84872,-3.456023 0.1392,-0.736169 0.66476,-1.704484 1.10365,-2.033415 0.0811,-0.06076 0.15086,-0.132499 0.15505,-0.159391 0.009,-0.06 -1.40695,-2.00862 -1.48213,-2.039198 -0.25944,-0.10553 -1.52963,2.722497 -1.73909,3.872042 -0.14446,0.792792 -0.18073,1.783132 -0.0877,2.395121 0.0973,0.640138 0.46053,1.537042 0.80404,1.985257 0.85659,1.117692 2.39732,1.561098 4.20308,1.209588 0.47145,-0.09177 0.85689,-0.221045 1.66014,-0.556797 0.57538,-0.240486 1.07493,-0.478663 1.11011,-0.529261 z m 0.93896,-0.829537 c 0.68909,-0.809688 0.81156,-1.731469 0.368,-2.769828 -0.3414,-0.799212 -0.89046,-1.327433 -1.6908,-1.626643 -0.63802,-0.238523 -1.50761,-0.237708 -2.07586,0.0019 -0.153,0.06452 -0.1527,0.06841 0.0305,0.391444 0.37651,0.663744 2.58814,3.738408 2.96878,4.127242 0.16072,0.16416 0.15151,0.167028 0.39934,-0.12416 z m -7.70425,-11.581678 c 0.38758,-1.025083 0.54347,-2.491093 0.42413,-3.988699 -0.0554,-0.694709 -0.10617,-0.94449 -0.30084,-1.479354 -0.20442,-0.561661 -0.26488,-0.672333 -0.47496,-0.870156 -0.32799,-0.308767 -0.64666,-0.356814 -1.03834,-0.156553 -0.34324,0.175492 -0.47864,0.387213 -0.63017,0.985364 -0.42109,1.662074 0.32073,4.850124 1.37717,5.918661 0.28325,0.286483 0.4106,0.205425 0.64301,-0.409263 z m 16.375,14.379185 c -0.86383,0.107467 -1.65783,-0.47435 -1.99302,-1.460423 -0.29164,-0.858033 -0.067,-1.974631 0.57498,-2.857999 0.30527,-0.420044 1.08249,-1.129702 1.49264,-1.362903 0.15091,-0.0858 0.29714,-0.188021 0.32497,-0.227151 0.0349,-0.04907 -0.25545,-0.376699 -0.93561,-1.055572 -4.99571,-4.986603 -8.39646,-8.55854 -8.40529,-8.828376 -0.002,-0.05636 0.0737,-0.13324 0.17159,-0.174504 0.13515,-0.057 0.42836,0.0026 1.29063,0.262277 1.1823,0.356067 1.88197,0.450348 3.41844,0.460619 1.77794,0.01188 3.3995,0.40059 4.21002,1.009194 0.27675,0.207805 0.66032,0.673445 0.62542,0.759239 -0.0344,0.08448 -0.35415,-0.0023 -1.29084,-0.350046 -1.15872,-0.430238 -1.74476,-0.557224 -2.41857,-0.524066 -1.28079,0.06302 -3.18465,0.476841 -3.10145,0.674124 0.0136,0.03221 1.76347,1.818635 3.88865,3.96983 2.12517,2.151197 4.01472,4.110924 4.199,4.35495 0.24826,0.328765 0.38612,0.579724 0.53224,0.968931 0.26584,0.708076 0.24219,1.174451 -0.10073,1.986922 -0.55163,1.306978 -1.56065,2.280205 -2.48306,2.394961 z m 5.41052,-17.019843 c -0.75175,0.0672 -1.60559,-0.596588 -1.81448,-1.410593 -0.23446,-0.913705 0.27293,-2.132029 1.2316,-2.957286 0.14896,-0.128231 0.26276,-0.252309 0.25288,-0.27573 -0.01,-0.02342 -1.22577,-1.097046 -2.702,-2.385825 -1.47623,-1.288783 -3.30445,-2.885207 -4.06273,-3.5476081 -0.75827,-0.662401 -1.38835,-1.227297 -1.40017,-1.255327 -0.0383,-0.09091 0.13394,-0.120226 0.40035,-0.06813 0.29293,0.05728 0.21392,-0.0016 3.1539,2.3512901 4.02737,3.223183 6.19909,5.035017 6.47552,5.402435 0.0595,0.07906 0.13212,0.133657 0.16139,0.121311 0.0641,-0.02705 0.39186,0.727157 0.33979,0.782544 -0.02,0.02132 -0.0479,0.233489 -0.0619,0.471457 -0.0378,0.640967 -0.42663,1.55776 -0.86979,2.051014 -0.37036,0.412216 -0.80142,0.693418 -1.10449,0.720509 z m -8.18176,-2.002858 c -0.0373,0.0032 -0.23473,0.02283 -0.43873,0.04348 -0.47362,0.04794 -1.08867,-0.04434 -1.59146,-0.238782 -1.24191,-0.480283 -1.88415,-1.694626 -1.41986,-2.684686 0.20105,-0.428697 0.43513,-0.620284 1.00222,-0.820241 0.64732,-0.228249 1.17648,-0.182925 2.07311,0.177557 0.65301,0.262535 0.68711,0.268429 0.67319,0.1163 -0.0335,-0.366157 -1.07855,-4.54795 -1.1419,-4.569393 -0.0843,-0.02857 -6.71336,0.367629 -6.80618,0.406776 -0.0364,0.01535 -0.0579,0.04817 -0.0478,0.0729 0.0102,0.02472 0.13234,0.534854 0.2716,1.133587 0.13927,0.598733 0.43536,1.866144 0.65798,2.816469 0.22262,0.950329 0.42065,1.916857 0.44008,2.147841 0.12651,1.50462 -0.99871,2.375306 -2.57952,1.996015 -0.79278,-0.190217 -1.6476,-0.865152 -1.9231,-1.518429 -0.11845,-0.280851 -0.15982,-0.81709 -0.0865,-1.121266 0.1604,-0.665443 0.63389,-1.075939 1.36477,-1.183185 0.56151,-0.0824 1.1124,0.03599 1.79809,0.386407 0.30495,0.155834 0.57237,0.275781 0.59426,0.266548 0.0219,-0.0092 0.005,-0.152205 -0.0387,-0.31769 -0.0432,-0.165485 -0.39777,-1.685105 -0.78796,-3.376927 -0.3902,-1.691818 -0.76835,-3.3122451 -0.84034,-3.6009521 -0.11798,-0.473264 -0.11796,-0.530368 2.1e-4,-0.580204 0.0721,-0.03043 0.15013,-0.03517 0.17338,-0.01059 0.0392,0.04141 0.66012,-0.0084 3.79759,-0.3046 3.54447,-0.3346255 3.85784,-0.3562854 3.89457,-0.269189 0.0204,0.048494 0.18299,0.693707 0.36121,1.433794 0.57864,2.4030821 0.98261,4.0602641 1.34645,5.5236351 0.4439,1.785397 0.50229,2.054733 0.53579,2.471481 0.0337,0.419146 -0.18112,0.968854 -0.47245,1.209034 -0.19618,0.161734 -0.64416,0.379815 -0.80999,0.394304 z m -1.01802,-8.9827561 c -0.0515,-0.223176 -0.11703,-0.461251 -0.14564,-0.52908 -0.0463,-0.109701 -0.42857,-0.09433 -3.46108,0.139164 -1.87501,0.144373 -3.41409,0.276024 -3.42022,0.292567 -0.0135,0.03651 0.20395,0.911945 0.22829,0.918977 0.0292,0.0084 6.80862,-0.391215 6.85172,-0.403913 0.0223,-0.0066 -0.002,-0.194529 -0.0531,-0.417699 z"
       id="path2190" />
    <path
       style="fill:#929ab9;fill-opacity:1;stroke-width:0.0647911"
       d="m 11.322202,97.076192 c 0.0048,-0.03532 -0.05588,-0.07266 -0.134296,-0.08297 -0.27865,-0.03649 -0.951476,-0.397567 -1.2685747,-0.680767 -0.401765,-0.358831 -0.6917437,-0.926479 -0.7639727,-1.495575 -0.04701,-0.370356 -0.03632,-0.478404 0.07402,-0.781501 0.2534337,-0.693398 1.0062284,-1.326545 1.7271204,-1.452625 0.577838,-0.101065 1.417616,0.266096 1.731894,0.757195 0.517062,0.808004 0.423111,1.75364 -0.221496,2.229198 -0.298502,0.220234 -0.924946,0.424939 -1.192947,0.389834 -0.208414,-0.02729 -0.244626,0.111068 -0.07511,0.286805 0.241077,0.249907 0.558872,0.364792 1.258312,0.454891 1.672494,0.21544 2.848551,-0.60297 3.047344,-2.120602 0.102568,-0.783046 -0.04687,-2.889647 -0.260789,-3.676125 l -0.05888,-0.216507 -0.802847,-0.04534 C 11.020988,90.452273 8.2873796,88.26205 7.9567456,85.494095 7.9265556,85.238481 7.8808756,85.01693 7.8558999,85.00168 c -0.07048,-0.04309 0.1863297,-1.881478 0.2614947,-1.871629 0.03526,0.0046 0.07323,-0.06064 0.08436,-0.145004 0.01103,-0.08439 0.126497,-0.396826 0.256665,-0.694294 0.795606,-1.819074 1.9963734,-3.12172 4.1947564,-4.550673 1.013593,-0.658839 1.321492,-0.914021 1.348117,-1.117303 0.01068,-0.08158 -0.01639,-0.323889 -0.06014,-0.538478 -0.193591,-0.949609 -0.19157,-1.766305 0.0082,-3.29893 0.16678,-1.278956 0.215883,-1.521055 0.426229,-2.100543 0.721071,-1.986203 1.89796,-3.250115 3.549024,-3.810657 0.827674,-0.281069 0.805094,-0.288799 1.028715,0.352266 0.795555,2.28063 0.745186,4.449752 -0.155286,6.688629 -0.640459,1.592385 -1.89749,3.424968 -3.349035,4.882403 -0.550019,0.552268 -0.528255,0.230959 -0.210065,3.099836 0.01642,0.147926 0.03678,0.156569 0.372598,0.15856 1.247158,0.0074 2.953546,0.993328 3.612514,2.087213 0.44795,0.743619 0.589929,1.470809 0.468178,2.398086 -0.09933,0.756503 -0.292778,1.279126 -0.703581,1.900853 -0.576419,0.872396 -1.404527,1.512923 -2.492466,1.927931 l -0.523526,0.199699 0.05613,0.264856 c 0.328151,1.547603 0.376654,3.592924 0.105653,4.454243 -0.350537,1.114095 -1.282535,1.847433 -2.500358,1.967394 -0.20903,0.02065 -0.382989,0.05977 -0.386569,0.08708 -0.0036,0.0273 -0.440132,-0.0072 -0.970129,-0.07658 -0.599603,-0.07854 -0.96046,-0.150504 -0.955224,-0.190463 z m 3.73567,-7.087722 c 0.08664,-0.04007 0.07401,-0.378654 -0.08491,-2.280847 -0.102283,-1.228598 -0.214048,-2.501999 -0.247371,-2.829874 -0.06101,-0.59579 -0.06104,-0.596093 -0.256196,-0.602421 -0.791273,-0.02565 -1.793876,0.818988 -1.99931,1.684294 -0.179159,0.754918 0.02618,1.290773 0.737336,1.923223 0.276225,0.245679 0.497239,0.484834 0.491128,0.531463 -0.0073,0.05546 -0.09626,0.07364 -0.257818,0.05246 -0.383457,-0.05022 -0.959334,-0.479402 -1.382829,-1.030543 -0.960911,-1.250591 -0.905425,-2.704638 0.149476,-3.91657 0.491892,-0.565125 1.434486,-1.135525 1.979408,-1.197813 0.100681,-0.01153 0.197119,-0.03818 0.214315,-0.05928 0.03809,-0.04725 -0.200074,-2.444183 -0.249583,-2.508535 -0.17065,-0.222092 -2.695057,1.577481 -3.456332,2.463929 -0.525017,0.611339 -1.0564087,1.447827 -1.2851454,2.023036 -0.239263,0.601661 -0.378653,1.559233 -0.308493,2.119565 0.175,1.39727 1.2809124,2.558012 3.0170404,3.166457 0.453264,0.158857 0.851232,0.241909 1.714093,0.357722 0.618069,0.08298 1.169521,0.129652 1.225441,0.103743 z m 1.22935,-0.241864 c 1.00364,-0.350904 1.574815,-1.084686 1.716305,-2.204918 0.108899,-0.862226 -0.09827,-1.595414 -0.638003,-2.257816 -0.430246,-0.528057 -1.181243,-0.966465 -1.792707,-1.0466 -0.16465,-0.02157 -0.16635,-0.01806 -0.17134,0.353272 -0.01019,0.763028 0.346123,4.533692 0.478292,5.061524 0.05584,0.222849 0.0464,0.220678 0.407388,0.09449 z M 15.48574,75.859621 c 0.852166,-0.689074 1.727005,-1.875725 2.380236,-3.228629 0.302993,-0.627605 0.385301,-0.868838 0.487367,-1.428803 0.107176,-0.588017 0.110875,-0.714073 0.02944,-0.990905 -0.127213,-0.432129 -0.37798,-0.634521 -0.817184,-0.659451 -0.384882,-0.02185 -0.608664,0.09252 -1.041496,0.532291 -1.20276,1.221967 -2.172322,4.34829 -1.800038,5.804053 0.09983,0.390305 0.250672,0.384649 0.761671,-0.02855 z m 6.872896,20.680061 c -0.799876,-0.343446 -1.19141,-1.246579 -0.982796,-2.266956 0.181551,-0.887869 0.939299,-1.738214 1.93949,-2.176506 0.475594,-0.208404 1.504795,-0.428467 1.976576,-0.422641 0.173581,0.0021 0.351408,-0.01224 0.395195,-0.03199 0.05489,-0.02473 -0.0303,-0.454134 -0.274539,-1.383557 -1.793925,-6.826799 -2.925535,-11.627143 -2.796899,-11.864507 0.02673,-0.04966 0.130895,-0.07779 0.236231,-0.06398 0.145428,0.01905 0.368413,0.218554 0.981539,0.878111 0.840687,0.904357 1.396992,1.339044 2.717994,2.123776 1.528617,0.908053 2.731962,2.062398 3.124228,2.996993 0.133933,0.319115 0.22988,0.914716 0.156473,0.971141 -0.07238,0.05555 -0.304519,-0.180817 -0.937419,-0.953966 -0.782874,-0.95647 -1.22459,-1.362007 -1.822923,-1.67364 -1.137323,-0.592361 -2.989582,-1.196561 -3.017388,-0.984265 -0.0049,0.0347 0.603769,2.460228 1.351811,5.390154 0.748032,2.929922 1.389378,5.575597 1.425218,5.87928 0.04822,0.409138 0.04051,0.695362 -0.02988,1.105086 -0.128099,0.745408 -0.384016,1.136012 -1.090272,1.664124 -1.136113,0.849549 -2.498487,1.180058 -3.352604,0.813323 z M 35.623113,84.581323 c -0.682797,-0.321605 -1.084594,-1.325707 -0.853851,-2.133788 0.259026,-0.907049 1.312179,-1.702418 2.556373,-1.930631 0.193328,-0.03546 0.354206,-0.08509 0.357505,-0.110302 0.0027,-0.02522 -0.504038,-1.565875 -1.127439,-3.423717 -0.623401,-1.857846 -1.395269,-4.158972 -1.71527,-5.113622 -0.32001,-0.954644 -0.578595,-1.760398 -0.574651,-1.79056 0.01283,-0.09781 0.176318,-0.03614 0.379967,0.143359 0.223928,0.197348 0.18546,0.106622 1.534923,3.622105 1.848584,4.815742 2.808168,7.476253 2.861228,7.932974 0.01191,0.09825 0.04652,0.182083 0.07802,0.186208 0.069,0.009 -0.02896,0.825513 -0.101872,0.847026 -0.02807,0.0083 -0.159245,0.177347 -0.291502,0.375674 -0.356289,0.534159 -1.154851,1.129128 -1.786443,1.331096 -0.527823,0.168779 -1.041889,0.193828 -1.317152,0.06417 z m -6.050621,-5.860258 c -0.03381,-0.01606 -0.214133,-0.09882 -0.40064,-0.184015 -0.433004,-0.197784 -0.917283,-0.588014 -1.253081,-1.009732 -0.82941,-1.041677 -0.770548,-2.414133 0.13015,-3.034243 0.390012,-0.268502 0.688795,-0.315664 1.279251,-0.20189 0.673978,0.129865 1.107831,0.436193 1.69972,1.200107 0.431062,0.556353 0.457523,0.57866 0.522298,0.440353 0.15598,-0.33296 1.365625,-4.470144 1.321779,-4.520643 -0.05831,-0.06722 -5.980212,-3.072705 -6.08009,-3.085788 -0.03913,-0.0052 -0.07429,0.01235 -0.07812,0.03879 -0.0036,0.02648 -0.155847,0.52848 -0.337991,1.115592 -0.182133,0.587117 -0.566563,1.830583 -0.854294,2.763262 -0.28773,0.932686 -0.60487,1.866933 -0.704741,2.076116 -0.650588,1.362579 -2.061471,1.545904 -3.234402,0.420267 -0.588232,-0.564508 -0.98523,-1.57873 -0.893151,-2.281716 0.03959,-0.302228 0.274657,-0.785966 0.491541,-1.011489 0.474476,-0.493372 1.090451,-0.608591 1.775456,-0.332089 0.526276,0.212421 0.941986,0.592789 1.356885,1.2415 0.184516,0.288495 0.354769,0.527064 0.378323,0.530149 0.02357,0.0031 0.0812,-0.128852 0.127021,-0.293753 0.04623,-0.164647 0.507596,-1.655341 1.025115,-3.312651 0.517519,-1.657312 1.009383,-3.246919 1.093028,-3.532465 0.137151,-0.468069 0.166003,-0.517347 0.293174,-0.500692 0.07763,0.01015 0.147343,0.04545 0.15499,0.07841 0.01306,0.05553 0.574017,0.326088 3.431661,1.654743 3.228348,1.50101 3.509768,1.640556 3.497486,1.73428 -0.0068,0.05215 -0.192345,0.691169 -0.412237,1.419962 -0.714036,2.366388 -1.202175,4.000758 -1.627081,5.447577 -0.518417,1.7652 -0.604027,2.02716 -0.785552,2.403788 -0.182562,0.378797 -0.645574,0.744796 -1.018314,0.804993 -0.250995,0.04053 -0.74779,0.0025 -0.898241,-0.06868 z m 3.657295,-8.267432 c 0.06825,-0.218639 0.131909,-0.457221 0.141462,-0.530213 0.01541,-0.118066 -0.322281,-0.297835 -3.057667,-1.627612 -1.691294,-0.822204 -3.086212,-1.485754 -3.099859,-1.474571 -0.0301,0.0247 -0.284468,0.890124 -0.267009,0.908483 0.02098,0.02201 6.074339,3.100453 6.117952,3.111256 0.0226,0.0056 0.0965,-0.168914 0.16509,-0.387345 z"
       id="path2210" />
    <path
       style="fill:none;stroke:#929ab9;stroke-width:0.965;stroke-linecap:butt;stroke-linejoin:miter;stroke-miterlimit:4;stroke-dasharray:none;stroke-opacity:1"
       d="M 47.769566,98.376075 44.267226,54.837462"
       id="path2425" />
  </g>
</svg>
