<?xml version="1.0" encoding="UTF-8" standalone="no"?>
<!-- Created with Inkscape (http://www.inkscape.org/) -->

<svg
   width="210mm"
   height="226mm"
   viewBox="0 0 210 226"
   version="1.1"
   id="svg1013"
   inkscape:version="1.1.2 (0a00cf5339, 2022-02-04)"
   sodipodi:docname="tuning_fork.svg"
   xmlns:inkscape="http://www.inkscape.org/namespaces/inkscape"
   xmlns:sodipodi="http://sodipodi.sourceforge.net/DTD/sodipodi-0.dtd"
   xmlns="http://www.w3.org/2000/svg"
   xmlns:svg="http://www.w3.org/2000/svg">
  <sodipodi:namedview
     id="namedview1015"
     pagecolor="#ffffff"
     bordercolor="#111111"
     borderopacity="1"
     inkscape:pageshadow="0"
     inkscape:pageopacity="0"
     inkscape:pagecheckerboard="1"
     inkscape:document-units="px"
     showgrid="false"
     inkscape:zoom="0.4850447"
     inkscape:cx="382.43898"
     inkscape:cy="619.53053"
     inkscape:window-width="1920"
     inkscape:window-height="948"
     inkscape:window-x="0"
     inkscape:window-y="1107"
     inkscape:window-maximized="1"
     inkscape:current-layer="layer1" />
  <defs
     id="defs1010" />
  <g
     inkscape:label="Layer 1"
     inkscape:groupmode="layer"
     id="layer1">
    <path
       style="fill:#ffd623;stroke-width:1.00822;fill-opacity:1"
       d="M 99.738174,215.82802 C 93.059346,212.53649 89.41072,203.57248 94.245247,196.73459 l 3.651677,-4.70717 -0.574187,-21.5531 c 0.350957,-25.69315 1.961587,-27.57403 -5.016483,-32.60522 -2.399354,-1.72998 -7.409435,-4.45065 -8.668919,-6.04588 -5.18156,-6.56306 -5.271719,-7.61742 -5.271719,-61.636238 0,-48.940224 0.05373,-50.338453 2.016425,-52.300996 2.516339,-2.516339 10.256726,-2.592399 12.446572,-0.17262 1.50363,1.661504 1.669163,6.621018 1.674231,50.159236 0.0033,28.8696 0.408536,49.765788 1.006689,51.919098 2.836321,10.21012 13.468497,12.66282 19.889157,4.24765 l 0.77534,-3.65911 0.29685,-50.460888 c 0.26293,-44.711232 0.48174,-50.665317 1.92066,-52.255296 2.14923,-2.374851 9.90383,-2.276118 12.40195,0.222159 1.96255,1.962543 2.01643,3.360733 2.01643,52.300967 0,54.018848 1.92611,55.073198 -3.25529,61.636228 -1.25949,1.59527 -8.286,4.31594 -10.68539,6.04592 -6.80179,4.90414 -5.21623,6.81033 -5.21128,31.97444 l 0.004,21.96126 3.01606,4.53699 c 5.0682,7.62398 1.4504,16.2732 -5.65331,19.6441 -4.09927,1.94525 -7.10458,1.90318 -11.286806,-0.15776 z M 26.399954,80.648042 C 15.748067,69.035792 11.202576,49.605542 15.383125,33.555382 18.454137,21.765001 27.345025,8.8119679 32.366919,8.8119679 c 2.50586,0 6.678026,4.0926611 6.678026,6.5507821 0,0.680766 -1.422465,3.001507 -3.161057,5.157247 -1.738555,2.155703 -4.56062,6.868519 -6.271205,10.472941 -2.758885,5.813324 -3.110147,7.578284 -3.110147,15.627484 0,8.04924 0.351338,9.81416 3.110147,15.62748 1.710585,3.60442 4.53265,8.31725 6.271205,10.47295 3.728343,4.62289 2.821779,7.15546 1.07436,9.15203 -2.17394,2.48387 -6.364751,3.34675 -10.558294,-1.22484 z m 147.820336,1.12432 c -1.28696,-0.92831 -2.65692,-4.42862 1.07139,-9.05151 1.73859,-2.1557 4.56066,-6.86853 6.27124,-10.47295 2.75889,-5.81332 3.11015,-7.57824 3.11015,-15.62748 0,-8.0492 -0.35134,-9.81416 -3.11015,-15.627484 -1.71058,-3.604422 -4.53265,-8.317238 -6.27124,-10.472941 -3.72831,-4.622885 -3.83645,-5.536327 -1.07139,-9.051497 2.9938,-3.8060341 6.36182,-3.4472871 10.55536,1.124314 16.63505,18.134867 16.53624,50.897918 -0.20539,68.134328 -4.29163,4.41845 -9.83703,1.66265 -10.3499,1.04522 z M 46.327524,69.040892 c -4.799088,-5.10839 -6.778473,-11.65537 -6.778473,-22.42047 0,-8.38869 0.38933,-10.9269 2.317768,-15.110803 3.227133,-7.001547 5.905538,-9.590707 9.92124,-9.590707 5.940405,0 6.978873,5.021133 2.632334,12.72787 -2.292428,4.06463 -2.772641,6.13841 -2.772641,11.97364 0,5.83527 0.480213,7.90901 2.772641,11.97364 1.524932,2.70382 2.772603,5.96075 2.772603,7.23761 0,5.3468 -6.933451,7.39466 -10.865472,3.20922 z m 108.864956,1.07117 c -1.92493,-1.9249 -1.42243,-5.71806 1.56273,-11.79656 3.84506,-7.82952 3.8246,-16.78103 -0.0541,-23.72108 -4.48052,-8.016538 -3.36973,-12.67551 3.02216,-12.67551 2.73701,0 3.85547,0.738002 6.36174,4.197887 8.07123,11.141973 8.07123,29.865273 0,41.007243 -2.50627,3.4599 -3.62473,4.1979 -6.36174,4.1979 -1.82643,0 -3.86526,-0.54442 -4.53067,-1.20988 z"
       id="path2330"
       sodipodi:nodetypes="csccssscssssccsssssccssccsssssssccsscsssssscsccssssssssscscscsscc" />
  </g>
</svg>
