<?xml version="1.0" encoding="UTF-8" standalone="no"?>
<!-- Created with Inkscape (http://www.inkscape.org/) -->

<svg
   width="61mm"
   height="88mm"
   viewBox="0 0 61 88"
   version="1.1"
   id="svg2671"
   inkscape:version="1.1.2 (0a00cf5339, 2022-02-04)"
   sodipodi:docname="violine.svg"
   xmlns:inkscape="http://www.inkscape.org/namespaces/inkscape"
   xmlns:sodipodi="http://sodipodi.sourceforge.net/DTD/sodipodi-0.dtd"
   xmlns="http://www.w3.org/2000/svg"
   xmlns:svg="http://www.w3.org/2000/svg">
  <sodipodi:namedview
     id="namedview2673"
     pagecolor="#ffffff"
     bordercolor="#111111"
     borderopacity="1"
     inkscape:pageshadow="0"
     inkscape:pageopacity="0"
     inkscape:pagecheckerboard="1"
     inkscape:document-units="mm"
     showgrid="false"
     inkscape:zoom="0.68595679"
     inkscape:cx="397.25534"
     inkscape:cy="342.58718"
     inkscape:window-width="1920"
     inkscape:window-height="975"
     inkscape:window-x="0"
     inkscape:window-y="0"
     inkscape:window-maximized="1"
     inkscape:current-layer="layer1" />
  <defs
     id="defs2668" />
  <g
     inkscape:label="Layer 1"
     inkscape:groupmode="layer"
     id="layer1">
    <path
       style="fill:#929ab9;stroke-width:0.113536;fill-opacity:1"
       d="m 23.516864,83.590563 c -0.0335,-0.0542 -0.32967,-0.13425 -0.65813,-0.1778 -0.94328,-0.12519 -3.81569,-0.719 -4.66975,-0.96548 -0.86378,-0.24927 -1.13624,-0.42003 -1.04591,-0.65546 0.0674,-0.17541 1.327,-2.13338 3.52726,-5.48254 0.79996,-1.21767 1.8875,-2.87814 2.41674,-3.68992 0.52926,-0.81178 1.61954,-2.47943 2.42283,-3.70588 0.80331,-1.22646 1.46056,-2.2829 1.46056,-2.34764 0,-0.0648 -0.13908,-0.22713 -0.30911,-0.36087 l -0.30912,-0.24315 2.99487,-5.92442 c 1.64716,-3.25843 3.12909,-6.12878 3.29315,-6.37856 0.18822,-0.28654 0.40168,-0.46864 0.57843,-0.49341 0.57823,-0.0811 0.50209,0.0634 3.62878,-6.88643 5.18841,-11.53254 5.91681,-13.0817 6.20231,-13.19125 0.11914,-0.0457 0.48897,0.24126 1.1406,0.885 2.06862,2.04354 3.19627,3.80801 3.68433,5.76502 0.31451,1.26109 0.2617,3.79017 -0.10767,5.15424 -0.58909,2.17584 -2.00861,4.49396 -4.42563,7.22721 l -0.44572,0.50403 -0.44087,-0.34568 c -0.64661,-0.50701 -0.92042,-0.62566 -1.46277,-0.63385 -0.68237,-0.0103 -1.4009,0.44317 -2.16865,1.36872 -1.21294,1.46221 -1.95,2.99262 -2.57992,5.35686 -0.33825,1.26951 -0.34841,1.38012 -0.35434,3.86151 -0.005,1.85182 0.0355,2.67213 0.14512,2.98194 0.23175,0.65482 0.94693,1.4805 1.55215,1.79194 0.29878,0.15377 0.59716,0.36506 0.66308,0.46955 0.15951,0.25286 -0.0788,2.74186 -0.44371,4.63421 -0.66985,3.47379 -1.84679,5.91776 -3.89574,8.08977 -1.60575,1.70216 -3.62076,2.73392 -6.17327,3.16091 -0.48394,0.081 -0.8799,0.18833 -0.8799,0.2386 0,0.12398 -3.26328,0.11703 -3.34006,-0.008 z m -8.64952,-2.32892 c -0.19368,-0.0699 -0.47468,-0.21126 -0.62445,-0.31413 l -0.2723,-0.18707 0.6073,-1.79982 c 0.80778,-2.39393 2.23714,-6.34147 3.63217,-10.03118 1.4806,-3.91604 1.64389,-4.31389 1.77055,-4.31414 0.24817,-4.4e-4 4.71854,2.3976 4.7189,2.53146 4.2e-4,0.23388 -8.99864,13.85865 -9.32586,14.1192 -0.11069,0.0882 -0.25343,0.087 -0.50631,-0.005 z m -3.24564,-2.25298 c -0.51902,-0.3887 -1.96648,-1.72984 -3.21659,-2.98032 -1.89458,-1.89513 -2.3497,-2.41537 -2.73395,-3.12514 -0.61972,-1.14464 -1.25651,-2.65705 -1.42368,-3.38123 -0.0752,-0.32589 -0.17908,-0.59253 -0.2308,-0.59253 -0.12519,0 -0.12171,-3.71621 0.003,-3.79366 0.0538,-0.0332 0.12806,-0.28156 0.16505,-0.55188 0.18369,-1.34019 1.13997,-3.62535 2.13769,-5.10831 1.01681,-1.51133 2.56695,-3.17827 4.55732,-4.90069 l 0.77001,-0.66635 0.69351,0.35767 c 0.4877,0.25152 0.84884,0.35696 1.21688,0.35528 2.71163,-0.0124 7.45562,-4.51014 8.88337,-8.42226 0.42827,-1.17346 0.65597,-2.97285 0.44167,-3.4902 -0.1903,-0.45944 -0.69308,-0.83383 -1.45024,-1.07987 -0.70401,-0.22879 -0.70847,-0.2506 -0.37449,-1.83258 0.75909,-3.59561 2.18341,-6.45341 4.13886,-8.30442 2.23289,-2.11361 5.42802,-2.9731 9.04582,-2.43332 0.84795,0.12652 1.69986,0.2976 1.89314,0.38019 l 0.35143,0.15016 -2.22058,4.03053 c -1.22132,2.21679 -3.63659,6.59377 -5.36728,9.72661 l -3.14672,5.69608 0.3348,0.33481 0.33481,0.3348 -3.07605,6.1285 c -1.69182,3.37068 -3.20519,6.26786 -3.36304,6.43818 -0.22455,0.2423 -0.35442,0.29502 -0.59679,0.24229 l -0.30978,-0.0674 -1.23688,3.43662 c -1.26783,3.52266 -1.6561,4.59857 -3.77017,10.44746 -0.72199,1.99749 -1.2794,3.3777 -1.36409,3.3777 -0.0788,0 -0.56785,-0.31802 -1.08687,-0.70671 z m 12.76582,-13.97742 c -0.2654,-0.12866 -0.48253,-0.30621 -0.48253,-0.39464 0,-0.16787 6.18676,-12.60727 6.35568,-12.77903 0.0926,-0.0942 1.09561,0.2221 1.19032,0.37535 0.0249,0.0402 -0.29933,0.7607 -0.72042,1.60105 -1.6202,3.23336 -5.61897,11.07367 -5.73681,11.24802 -0.1125,0.16649 -0.16748,0.16188 -0.60624,-0.0507 z m -2.66809,-1.33219 c -0.23417,-0.12368 -0.42577,-0.27561 -0.42577,-0.33775 0,-0.26264 5.88526,-11.90186 6.38226,-12.62213 l 0.21276,-0.30833 0.50595,0.2458 c 0.27827,0.1352 0.50595,0.27799 0.50595,0.31732 0,0.0393 -0.86887,1.77902 -1.93083,3.86599 -1.06194,2.08696 -2.53081,4.98224 -3.26416,6.43395 -0.73333,1.45172 -1.38444,2.63732 -1.44688,2.6347 -0.0624,-0.003 -0.30513,-0.10586 -0.53928,-0.22955 z m 10.75753,-12.75348 c -0.4864,-0.1806 -1.27829,-0.61345 -1.35786,-0.74219 -0.0667,-0.10793 1.74464,-4.06131 5.67352,-12.38282 1.10558,-2.34168 2.1358,-4.53008 2.28936,-4.86312 0.15358,-0.33303 0.71041,-1.5035 1.23745,-2.60104 0.94406,-1.96605 1.1919,-2.66248 0.52791,-1.48354 -1.01995,1.81103 -5.81124,10.74921 -10.34922,19.30658 -0.38873,0.73301 -0.74549,1.35668 -0.79282,1.38593 -0.10902,0.0674 -1.74272,-0.86178 -1.79218,-1.01926 -0.034,-0.10814 2.56633,-4.82773 10.66332,-19.35429 7.24699,-13.001603 9.04272,-16.180576 9.19394,-16.275955 0.2121,-0.133794 1.90728,0.642527 1.90728,0.87345 0,0.09169 -0.79789,1.947068 -1.77309,4.123068 -0.97522,2.175997 -1.98993,4.441727 -2.25492,5.034957 -3.25904,7.29593 -12.44195,27.45826 -12.72967,27.94977 -0.084,0.14354 -0.16356,0.15223 -0.44302,0.0485 z m 22.05437,-38.11022 c -0.35905,-0.185332 -0.65283,-0.359778 -0.65283,-0.387656 0,-0.266967 0.50608,-1.308104 0.63584,-1.308104 0.13727,0 1.47962,0.618741 1.62135,0.74736 0.0237,0.02158 -0.0716,0.322069 -0.21188,0.667761 -0.30384,0.748592 -0.43476,0.774978 -1.39248,0.280639 z m -5.09765,-1.038752 c -1.12884,-0.575318 -2.07891,-1.115034 -2.11128,-1.199368 -0.10012,-0.260996 0.13772,-0.6618612 2.38741,-4.0236492 1.45134,-2.168774 2.24834,-3.261623 2.3805,-3.264162 0.10933,-0.0021 0.19868,0.03709 0.19868,0.0871 0,0.05 0.24269,0.208113 0.5393,0.351359 1.16166,0.561006 1.84496,1.041574 1.84496,1.297541 0,0.26298 -1.66051,5.2888812 -2.26698,6.8615302 -0.31661,0.820982 -0.39513,0.935684 -0.64051,0.935684 -0.1538,0 -1.20326,-0.470714 -2.33208,-1.046032 z m 6.71554,-1.8008552 c -1.21361,-0.573786 -1.24332,-0.631712 -0.82684,-1.611307 0.2128,-0.500513 0.22149,-0.499814 1.53637,0.123873 0.71298,0.338187 0.87984,0.465769 0.8799,0.672783 5e-5,0.140499 -0.039,0.255455 -0.0867,0.255455 -0.0477,0 -0.21304,0.204366 -0.36742,0.454145 -0.15436,0.2497802 -0.30693,0.4541032 -0.33901,0.4540552 -0.0322,-5e-5 -0.39045,-0.157101 -0.79635,-0.3490062 z m -10.68048,-1.691875 c -0.68874,-0.36411 -0.73736,-0.489327 -0.43039,-1.10824 0.14754,-0.297392 0.35286,-0.556319 0.45634,-0.575393 0.19371,-0.03571 1.68519,0.640795 1.68519,0.764364 0,0.105903 -0.59112,0.962358 -0.72938,1.056772 -0.20232,0.138174 -0.55328,0.08901 -0.98176,-0.137509 z m 1.56922,-2.904997 c -0.4215,-0.216347 -0.76638,-0.43951 -0.76638,-0.495917 0,-0.244182 0.4632,-1.153806 0.61774,-1.213109 0.18461,-0.07084 2.00643,0.846401 2.07204,1.043208 0.0222,0.06646 -0.11446,0.334471 -0.30363,0.595588 -0.42308,0.584038 -0.60349,0.59186 -1.61977,0.07023 z"
       id="path2140" />
  </g>
</svg>
