<?xml version="1.0" encoding="UTF-8" standalone="no"?>
<!-- Created with Inkscape (http://www.inkscape.org/) -->

<svg
   width="1800mm"
   height="1800mm"
   viewBox="0 0 1800 1800"
   version="1.1"
   id="svg327624"
   inkscape:version="1.1.2 (0a00cf5339, 2022-02-04)"
   sodipodi:docname="word_condenser_wo_drop.svg"
   xmlns:inkscape="http://www.inkscape.org/namespaces/inkscape"
   xmlns:sodipodi="http://sodipodi.sourceforge.net/DTD/sodipodi-0.dtd"
   xmlns="http://www.w3.org/2000/svg"
   xmlns:svg="http://www.w3.org/2000/svg">
  <sodipodi:namedview
     id="namedview327626"
     pagecolor="#ffffff"
     bordercolor="#111111"
     borderopacity="1"
     inkscape:pageshadow="0"
     inkscape:pageopacity="0"
     inkscape:pagecheckerboard="1"
     inkscape:document-units="px"
     showgrid="false"
     inkscape:zoom="0.12126117"
     inkscape:cx="4127.4547"
     inkscape:cy="4597.5144"
     inkscape:window-width="1920"
     inkscape:window-height="948"
     inkscape:window-x="0"
     inkscape:window-y="1107"
     inkscape:window-maximized="1"
     inkscape:current-layer="layer1"
     inkscape:snap-global="false" />
  <defs
     id="defs327621" />
  <g
     inkscape:label="Layer 1"
     inkscape:groupmode="layer"
     id="layer1">
    <path
       style="fill:#ffd623;fill-opacity:1;stroke-width:0.106054"
       d="m 918.52527,1448.1602 c -0.689,-0.073 -2.548,-0.479 -3.266,-0.7132 -4.293,-1.4015 -7.773,-4.261 -9.708,-7.9774 -0.6,-1.1511 -0.903,-1.9998 -1.249,-3.503 -0.503,-2.1806 -0.295,-6.3574 0.488,-9.8222 0.812,-3.5913 2.102,-6.7102 5.022,-12.1452 0.159,-0.2983 0.909,-1.6896 1.662,-3.0917 4.527,-8.4141 6.827,-14.7177 8.255,-22.6182 0.129,-0.716 0.251,-1.3222 0.268,-1.347 0.08,-0.1165 0.175,0.158 0.301,0.883 0.36,2.0697 1.063,5.1274 1.654,7.1898 0.786,2.744 1.048,3.5965 1.242,4.0301 0.08,0.188 0.152,0.3938 0.152,0.4574 0,0.064 0.07,0.2759 0.152,0.4717 0.08,0.196 0.407,1.0397 0.718,1.875 1.088,2.9203 3.338,7.8161 5.587,12.1597 0.689,1.3296 2.676,5.4923 2.999,6.284 1.532,3.757 2.185,6.044 2.69,9.4359 0.177,1.1829 0.229,2.0224 0.236,3.7968 0,2.0611 -0.01,2.3762 -0.24,3.3087 -0.953,3.9473 -3.503,7.1887 -7.289,9.2608 -2.45,1.3401 -4.902,2.0035 -7.653,2.0701 -0.884,0.022 -1.793,0.018 -2.022,0 z m 3.992,-3.3504 c 1.183,-0.2851 2.663,-0.7722 2.84,-0.9342 0.05,-0.046 -0.37,-0.086 -0.934,-0.086 -3.912,-0.011 -7.163,-1.5504 -9.817,-4.6626 -1.358,-1.5924 -2.5,-3.8094 -3.222,-6.2521 -0.93,-3.1488 -1.092,-7.3665 -0.421,-11.0092 0.263,-1.4319 0.36,-1.8316 0.788,-3.2374 0.116,-0.3777 0.191,-0.705 0.17,-0.7274 -0.09,-0.091 -1.791,2.7189 -2.347,3.869 -1.498,3.1005 -2.171,5.6852 -2.269,8.7184 -0.08,2.6082 0.138,4.2407 0.866,6.3926 1.38,4.0745 4.521,7.0765 8.338,7.9672 1.336,0.3121 1.485,0.3251 3.261,0.2846 1.224,-0.028 1.808,-0.097 2.747,-0.3228 z"
       id="path326990" />
  </g>
</svg>
